Exo2-Black.ufo
<glyph name="plus" format="2">
  <advance width="523"/>
  <unicode hex="002B"/>
  <outline>
    <contour>
      <point x="497" y="381" type="line"/>
      <point x="26" y="381" type="line"/>
      <point x="26" y="226" type="line"/>
      <point x="497" y="226" type="line"/>
    </contour>
    <contour>
      <point x="338" y="539" type="line"/>
      <point x="185" y="539" type="line"/>
      <point x="185" y="68" type="line"/>
      <point x="338" y="68" type="line"/>
    </contour>
  </outline>
</glyph>
<glyph name="comma" format="2">
  <advance width="255"/>
  <unicode hex="002C"/>
  <outline>
    <contour>
      <point x="147" y="185" type="curve" smooth="yes"/>
      <point x="106" y="185" type="line" smooth="yes"/>
      <point x="53" y="185"/>
      <point x="36" y="168"/>
      <point x="35" y="113" type="curve" smooth="yes"/>
      <point x="32" y="64" type="line" smooth="yes"/>
      <point x="33" y="23"/>
      <point x="52" y="0"/>
      <point x="93" y="0" type="curve"/>
      <point x="92" y="-45"/>
      <point x="89" y="-92"/>
      <point x="74" y="-137" type="curve"/>
      <point x="152" y="-162" type="line"/>
      <point x="194" y="-104"/>
      <point x="219" y="-52"/>
      <point x="219" y="49" type="curve" smooth="yes"/>
      <point x="219" y="113" type="line" smooth="yes"/>
      <point x="218" y="168"/>
      <point x="200" y="185"/>
    </contour>
  </outline>
</glyph>
<glyph name="period" format="2">
  <advance width="259"/>
  <unicode hex="002E"/>
  <outline>
    <contour>
      <point x="153" y="185" type="curve" smooth="yes"/>
      <point x="106" y="185" type="line" smooth="yes"/>
      <point x="51" y="185"/>
      <point x="34" y="168"/>
      <point x="34" y="113" type="curve" smooth="yes"/>
      <point x="34" y="72" type="line" smooth="yes"/>
      <point x="34" y="17"/>
      <point x="51" y="0"/>
      <point x="106" y="0" type="curve" smooth="yes"/>
      <point x="153" y="0" type="line" smooth="yes"/>
      <point x="208" y="0"/>
      <point x="225" y="17"/>
      <point x="225" y="72" type="curve" smooth="yes"/>
      <point x="225" y="113" type="line" smooth="yes"/>
      <point x="225" y="168"/>
      <point x="208" y="185"/>
    </contour>
  </outline>
</glyph>
<glyph name="two" format="2">
  <advance width="600"/>
  <unicode hex="0032"/>
  <outline>
    <contour>
      <point x="297" y="702" type="curve" smooth="yes"/>
      <point x="218" y="702"/>
      <point x="143" y="699"/>
      <point x="39" y="680" type="curve"/>
      <point x="46" y="521" type="line"/>
      <point x="144" y="523"/>
      <point x="195" y="523"/>
      <point x="269" y="523" type="curve" smooth="yes"/>
      <point x="314" y="523"/>
      <point x="330" y="521"/>
      <point x="330" y="502" type="curve" smooth="yes"/>
      <point x="330" y="471"/>
      <point x="282" y="411"/>
      <point x="207" y="336" type="curve" smooth="yes"/>
      <point x="63" y="195" type="line" smooth="yes"/>
      <point x="41" y="169"/>
      <point x="33" y="143"/>
      <point x="33" y="108" type="curve" smooth="yes"/>
      <point x="33" y="0" type="line"/>
      <point x="568" y="0" type="line"/>
      <point x="568" y="182" type="line"/>
      <point x="376" y="182" type="line" smooth="yes"/>
      <point x="343" y="183"/>
      <point x="315" y="181"/>
      <point x="284" y="172" type="curve"/>
      <point x="447" y="326" type="line" smooth="yes"/>
      <point x="539" y="418"/>
      <point x="552" y="458"/>
      <point x="552" y="530" type="curve" smooth="yes"/>
      <point x="552" y="668"/>
      <point x="450" y="702"/>
    </contour>
  </outline>
</glyph>
<glyph name="six" format="2">
  <advance width="608"/>
  <unicode hex="0036"/>
  <outline>
    <contour>
      <point x="347" y="702" type="curve" smooth="yes"/>
      <point x="139" y="702"/>
      <point x="35" y="653"/>
      <point x="35" y="339" type="curve" smooth="yes"/>
      <point x="35" y="55"/>
      <point x="105" y="-12"/>
      <point x="313" y="-12" type="curve" smooth="yes"/>
      <point x="533" y="-12"/>
      <point x="583" y="63"/>
      <point x="583" y="246" type="curve" smooth="yes"/>
      <point x="583" y="393"/>
      <point x="538" y="456"/>
      <point x="377" y="456" type="curve" smooth="yes"/>
      <point x="274" y="456"/>
      <point x="227" y="429"/>
      <point x="159" y="325" type="curve"/>
      <point x="163" y="253" type="line"/>
      <point x="244" y="298"/>
      <point x="265" y="314"/>
      <point x="312" y="314" type="curve" smooth="yes"/>
      <point x="369" y="314"/>
      <point x="381" y="305"/>
      <point x="381" y="241" type="curve" smooth="yes"/>
      <point x="381" y="163"/>
      <point x="379" y="139"/>
      <point x="315" y="139" type="curve" smooth="yes"/>
      <point x="246" y="139"/>
      <point x="242" y="159"/>
      <point x="242" y="327" type="curve" smooth="yes"/>
      <point x="242" y="521"/>
      <point x="247" y="551"/>
      <point x="347" y="551" type="curve" smooth="yes"/>
      <point x="433" y="551"/>
      <point x="468" y="551"/>
      <point x="528" y="551" type="curve"/>
      <point x="536" y="680" type="line"/>
      <point x="461" y="702"/>
      <point x="385" y="702"/>
    </contour>
  </outline>
</glyph>
<glyph name="eight" format="2">
  <advance width="639"/>
  <unicode hex="0038"/>
  <outline>
    <contour>
      <point x="320" y="704" type="curve" smooth="yes"/>
      <point x="101" y="704"/>
      <point x="55" y="648"/>
      <point x="55" y="518" type="curve" smooth="yes"/>
      <point x="55" y="448"/>
      <point x="86" y="368"/>
      <point x="163" y="360" type="curve"/>
      <point x="163" y="356" type="line"/>
      <point x="60" y="347"/>
      <point x="37" y="260"/>
      <point x="37" y="172" type="curve" smooth="yes"/>
      <point x="37" y="34"/>
      <point x="95" y="-14"/>
      <point x="320" y="-14" type="curve" smooth="yes"/>
      <point x="548" y="-14"/>
      <point x="603" y="34"/>
      <point x="603" y="172" type="curve" smooth="yes"/>
      <point x="603" y="260"/>
      <point x="580" y="347"/>
      <point x="477" y="356" type="curve"/>
      <point x="477" y="360" type="line"/>
      <point x="554" y="368"/>
      <point x="585" y="448"/>
      <point x="585" y="518" type="curve" smooth="yes"/>
      <point x="585" y="648"/>
      <point x="541" y="704"/>
    </contour>
    <contour>
      <point x="322" y="292" type="curve" smooth="yes"/>
      <point x="385" y="292"/>
      <point x="399" y="278"/>
      <point x="399" y="212" type="curve" smooth="yes"/>
      <point x="399" y="150"/>
      <point x="385" y="137"/>
      <point x="321" y="137" type="curve" smooth="yes"/>
      <point x="255" y="137"/>
      <point x="240" y="150"/>
      <point x="240" y="212" type="curve" smooth="yes"/>
      <point x="240" y="278"/>
      <point x="254" y="292"/>
    </contour>
    <contour>
      <point x="321" y="564" type="curve" smooth="yes"/>
      <point x="378" y="564"/>
      <point x="391" y="553"/>
      <point x="391" y="489" type="curve" smooth="yes"/>
      <point x="391" y="435"/>
      <point x="380" y="424"/>
      <point x="323" y="424" type="curve" smooth="yes"/>
      <point x="264" y="424"/>
      <point x="249" y="435"/>
      <point x="249" y="489" type="curve" smooth="yes"/>
      <point x="249" y="553"/>
      <point x="263" y="564"/>
    </contour>
  </outline>
</glyph>
<glyph name="A" format="2">
  <advance width="683"/>
  <unicode hex="0041"/>
  <anchor x="343" y="-12" name="bottom"/>
  <anchor x="692" y="0" name="ogonek"/>
  <anchor x="343" y="735" name="top"/>
  <outline>
    <contour>
      <point x="440" y="690" type="curve" smooth="yes"/>
      <point x="243" y="690" type="line" smooth="yes"/>
      <point x="208" y="690"/>
      <point x="179" y="668"/>
      <point x="170" y="634" type="curve" smooth="yes"/>
      <point x="-9" y="0" type="line"/>
      <point x="212" y="0" type="line"/>
      <point x="316" y="449" type="line" smooth="yes"/>
      <point x="321" y="474"/>
      <point x="325" y="503"/>
      <point x="328" y="528" type="curve"/>
      <point x="355" y="528" type="line"/>
      <point x="357" y="503"/>
      <point x="362" y="474"/>
      <point x="367" y="449" type="curve" smooth="yes"/>
      <point x="471" y="0" type="line"/>
      <point x="692" y="0" type="line"/>
      <point x="513" y="634" type="line" smooth="yes"/>
      <point x="504" y="668"/>
      <point x="475" y="690"/>
    </contour>
    <contour>
      <point x="525" y="301" type="line"/>
      <point x="158" y="301" type="line"/>
      <point x="158" y="149" type="line"/>
      <point x="525" y="149" type="line"/>
    </contour>
  </outline>
</glyph>
<glyph name="F" format="2">
  <advance width="574"/>
  <unicode hex="0046"/>
  <outline>
    <contour>
      <point x="214" y="694" type="curve" smooth="yes"/>
      <point x="118" y="694"/>
      <point x="50" y="630"/>
      <point x="50" y="537" type="curve" smooth="yes"/>
      <point x="50" y="0" type="line"/>
      <point x="267" y="0" type="line"/>
      <point x="267" y="492" type="line" smooth="yes"/>
      <point x="267" y="513"/>
      <point x="283" y="528"/>
      <point x="310" y="528" type="curve" smooth="yes"/>
      <point x="551" y="528" type="line"/>
      <point x="561" y="680" type="line"/>
      <point x="466" y="694"/>
      <point x="329" y="694"/>
    </contour>
    <contour>
      <point x="68" y="411" type="line"/>
      <point x="68" y="267" type="line"/>
      <point x="514" y="267" type="line"/>
      <point x="514" y="411" type="line"/>
    </contour>
  </outline>
</glyph>
<glyph name="I" format="2">
  <advance width="321"/>
  <unicode hex="0049"/>
  <anchor x="159" y="0" name="bottom"/>
  <anchor x="240" y="0" name="ogonek"/>
  <anchor x="161" y="735" name="top"/>
  <outline>
    <contour>
      <point x="268" y="690" type="line"/>
      <point x="53" y="690" type="line"/>
      <point x="53" y="0" type="line"/>
      <point x="268" y="0" type="line"/>
    </contour>
  </outline>
</glyph>
<glyph name="N" format="2">
  <advance width="738"/>
  <unicode hex="004E"/>
  <anchor x="379" y="0" name="bottom"/>
  <anchor x="381" y="735" name="top"/>
  <outline>
    <contour>
      <point x="687" y="690" type="line"/>
      <point x="488" y="690" type="line"/>
      <point x="489" y="408" type="line" smooth="yes"/>
      <point x="489" y="366"/>
      <point x="493" y="325"/>
      <point x="498" y="283" type="curve"/>
      <point x="491" y="283" type="line"/>
      <point x="475" y="327"/>
      <point x="457" y="368"/>
      <point x="438" y="401" type="curve" smooth="yes"/>
      <point x="294" y="627" type="line" smooth="yes"/>
      <point x="270" y="668"/>
      <point x="255" y="690"/>
      <point x="210" y="690" type="curve" smooth="yes"/>
      <point x="127" y="690" type="line" smooth="yes"/>
      <point x="78" y="690"/>
      <point x="52" y="664"/>
      <point x="52" y="615" type="curve" smooth="yes"/>
      <point x="52" y="0" type="line"/>
      <point x="252" y="0" type="line"/>
      <point x="252" y="292" type="line" smooth="yes"/>
      <point x="252" y="332"/>
      <point x="248" y="376"/>
      <point x="242" y="418" type="curve"/>
      <point x="249" y="418" type="line"/>
      <point x="261" y="376"/>
      <point x="276" y="334"/>
      <point x="295" y="300" type="curve" smooth="yes"/>
      <point x="445" y="63" type="line" smooth="yes"/>
      <point x="468" y="22"/>
      <point x="484" y="0"/>
      <point x="529" y="0" type="curve" smooth="yes"/>
      <point x="612" y="0" type="line" smooth="yes"/>
      <point x="661" y="0"/>
      <point x="687" y="26"/>
      <point x="687" y="75" type="curve" smooth="yes"/>
    </contour>
  </outline>
</glyph>
<glyph name="P" format="2">
  <advance width="646"/>
  <unicode hex="0050"/>
  <outline>
    <contour>
      <point x="344" y="700" type="curve" smooth="yes"/>
      <point x="206" y="700"/>
      <point x="144" y="699"/>
      <point x="52" y="690" type="curve"/>
      <point x="67" y="542" type="line"/>
      <point x="101" y="546"/>
      <point x="203" y="547"/>
      <point x="339" y="547" type="curve" smooth="yes"/>
      <point x="398" y="547"/>
      <point x="413" y="531"/>
      <point x="413" y="465" type="curve" smooth="yes"/>
      <point x="413" y="401"/>
      <point x="398" y="385"/>
      <point x="339" y="385" type="curve" smooth="yes"/>
      <point x="248" y="385"/>
      <point x="153" y="385"/>
      <point x="66" y="385" type="curve"/>
      <point x="63" y="287" type="line"/>
      <point x="95" y="265"/>
      <point x="240" y="232"/>
      <point x="374" y="232" type="curve" smooth="yes"/>
      <point x="563" y="232"/>
      <point x="630" y="283"/>
      <point x="630" y="465" type="curve" smooth="yes"/>
      <point x="630" y="649"/>
      <point x="563" y="700"/>
    </contour>
    <contour>
      <point x="269" y="690" type="line"/>
      <point x="52" y="690" type="line"/>
      <point x="52" y="0" type="line"/>
      <point x="269" y="0" type="line"/>
    </contour>
  </outline>
</glyph>
<glyph name="T" format="2">
  <advance width="623"/>
  <unicode hex="0054"/>
  <anchor x="303" y="-20" name="bottom"/>
  <anchor x="304" y="345" name="center"/>
  <anchor x="311" y="735" name="top"/>
  <outline>
    <contour>
      <point x="420" y="690" type="line"/>
      <point x="203" y="690" type="line"/>
      <point x="203" y="0" type="line"/>
      <point x="420" y="0" type="line"/>
    </contour>
    <contour>
      <point x="613" y="690" type="line"/>
      <point x="10" y="690" type="line"/>
      <point x="10" y="528" type="line"/>
      <point x="613" y="528" type="line"/>
    </contour>
  </outline>
</glyph>
<glyph name="a" format="2">
  <advance width="590"/>
  <unicode hex="0061"/>
  <anchor x="291" y="-12" name="bottom"/>
  <anchor x="552" y="0" name="ogonek"/>
  <anchor x="303" y="565" name="top"/>
  <outline>
    <contour>
      <point x="333" y="514" type="curve" smooth="yes"/>
      <point x="257" y="514"/>
      <point x="124" y="503"/>
      <point x="48" y="489" type="curve"/>
      <point x="67" y="356" type="line"/>
      <point x="152" y="360"/>
      <point x="231" y="361"/>
      <point x="283" y="361" type="curve" smooth="yes"/>
      <point x="327" y="361"/>
      <point x="341" y="346"/>
      <point x="342" y="311" type="curve" smooth="yes"/>
      <point x="342" y="127" type="line"/>
      <point x="356" y="107" type="line"/>
      <point x="385" y="0" type="line"/>
      <point x="552" y="0" type="line"/>
      <point x="552" y="310" type="line" smooth="yes"/>
      <point x="552" y="466"/>
      <point x="474" y="514"/>
    </contour>
    <contour>
      <point x="471" y="307" type="line"/>
      <point x="186" y="307" type="line" smooth="yes"/>
      <point x="84" y="307"/>
      <point x="21" y="258"/>
      <point x="21" y="178" type="curve" smooth="yes"/>
      <point x="21" y="128" type="line" smooth="yes"/>
      <point x="21" y="34"/>
      <point x="100" y="-14"/>
      <point x="193" y="-14" type="curve" smooth="yes"/>
      <point x="332" y="-14"/>
      <point x="389" y="97"/>
      <point x="408" y="142" type="curve"/>
      <point x="408" y="206" type="line"/>
      <point x="374" y="168"/>
      <point x="314" y="128"/>
      <point x="267" y="128" type="curve" smooth="yes"/>
      <point x="239" y="128"/>
      <point x="225" y="141"/>
      <point x="225" y="159" type="curve" smooth="yes"/>
      <point x="225" y="175" type="line" smooth="yes"/>
      <point x="225" y="193"/>
      <point x="238" y="206"/>
      <point x="263" y="206" type="curve" smooth="yes"/>
      <point x="470" y="206" type="line"/>
    </contour>
  </outline>
</glyph>
<glyph name="f" format="2">
  <advance width="427"/>
  <unicode hex="0066"/>
  <outline>
    <contour>
      <point x="276" y="724" type="curve" smooth="yes"/>
      <point x="139" y="724"/>
      <point x="92" y="655"/>
      <point x="92" y="561" type="curve" smooth="yes"/>
      <point x="92" y="0" type="line"/>
      <point x="303" y="0" type="line"/>
      <point x="303" y="532" type="line" smooth="yes"/>
      <point x="303" y="571"/>
      <point x="314" y="584"/>
      <point x="351" y="584" type="curve" smooth="yes"/>
      <point x="439" y="584" type="line"/>
      <point x="459" y="710" type="line"/>
      <point x="409" y="720"/>
      <point x="316" y="724"/>
    </contour>
    <contour>
      <point x="422" y="500" type="line"/>
      <point x="93" y="500" type="line"/>
      <point x="8" y="495" type="line"/>
      <point x="8" y="374" type="line"/>
      <point x="422" y="374" type="line"/>
    </contour>
  </outline>
</glyph>
<glyph name="j" format="2">
  <advance width="304"/>
  <unicode hex="006A"/>
  <outline>
    <contour>
      <point x="257" y="500" type="line"/>
      <point x="48" y="500" type="line"/>
      <point x="48" y="58" type="line" smooth="yes"/>
      <point x="48" y="1"/>
      <point x="32" y="-45"/>
      <point x="-21" y="-98" type="curve"/>
      <point x="95" y="-190" type="line"/>
      <point x="196" y="-149"/>
      <point x="257" y="-46"/>
      <point x="257" y="58" type="curve" smooth="yes"/>
    </contour>
    <contour>
      <point x="194" y="739" type="curve" smooth="yes"/>
      <point x="105" y="739" type="line" smooth="yes"/>
      <point x="64" y="739"/>
      <point x="44" y="719"/>
      <point x="44" y="677" type="curve" smooth="yes"/>
      <point x="44" y="626" type="line" smooth="yes"/>
      <point x="44" y="584"/>
      <point x="64" y="564"/>
      <point x="105" y="564" type="curve" smooth="yes"/>
      <point x="194" y="564" type="line" smooth="yes"/>
      <point x="235" y="564"/>
      <point x="255" y="584"/>
      <point x="255" y="626" type="curve" smooth="yes"/>
      <point x="255" y="677" type="line" smooth="yes"/>
      <point x="255" y="719"/>
      <point x="235" y="739"/>
    </contour>
  </outline>
</glyph>
<glyph name="l" format="2">
  <advance width="358"/>
  <unicode hex="006C"/>
  <anchor x="201" y="-12" name="bottom"/>
  <anchor x="149" y="733" name="top"/>
  <outline>
    <contour>
      <point x="253" y="700" type="line"/>
      <point x="44" y="700" type="line"/>
      <point x="44" y="126" type="line" smooth="yes"/>
      <point x="44" y="38"/>
      <point x="108" y="-14"/>
      <point x="213" y="-14" type="curve" smooth="yes"/>
      <point x="252" y="-14"/>
      <point x="330" y="-6"/>
      <point x="360" y="12" type="curve"/>
      <point x="337" y="146" type="line"/>
      <point x="303" y="146" type="line" smooth="yes"/>
      <point x="269" y="146"/>
      <point x="253" y="156"/>
      <point x="253" y="182" type="curve" smooth="yes"/>
    </contour>
  </outline>
</glyph>
<glyph name="n" format="2">
  <advance width="621"/>
  <unicode hex="006E"/>
  <anchor x="313" y="-12" name="bottom"/>
  <anchor x="312" y="557" name="top"/>
  <outline>
    <contour>
      <point x="433" y="514" type="curve" smooth="yes"/>
      <point x="364" y="514"/>
      <point x="288" y="484"/>
      <point x="221" y="421" type="curve"/>
      <point x="231" y="318" type="line"/>
      <point x="282" y="335"/>
      <point x="309" y="337"/>
      <point x="335" y="337" type="curve" smooth="yes"/>
      <point x="361" y="337"/>
      <point x="371" y="329"/>
      <point x="371" y="307" type="curve" smooth="yes"/>
      <point x="371" y="0" type="line"/>
      <point x="581" y="0" type="line"/>
      <point x="581" y="374" type="line" smooth="yes"/>
      <point x="581" y="466"/>
      <point x="530" y="514"/>
    </contour>
    <contour>
      <point x="208" y="500" type="line"/>
      <point x="43" y="500" type="line"/>
      <point x="43" y="0" type="line"/>
      <point x="253" y="0" type="line"/>
      <point x="253" y="386" type="line"/>
      <point x="234" y="398" type="line"/>
    </contour>
  </outline>
</glyph>
<glyph name="o" format="2">
  <advance width="611"/>
  <unicode hex="006F"/>
  <anchor x="307" y="-12" name="bottom"/>
  <anchor x="350" y="0" name="ogonek"/>
  <anchor x="306" y="547" name="top"/>
  <outline>
    <contour>
      <point x="306" y="514" type="curve" smooth="yes"/>
      <point x="101" y="514"/>
      <point x="26" y="444"/>
      <point x="26" y="249" type="curve" smooth="yes"/>
      <point x="26" y="57"/>
      <point x="101" y="-12"/>
      <point x="306" y="-12" type="curve" smooth="yes"/>
      <point x="510" y="-12"/>
      <point x="585" y="57"/>
      <point x="585" y="249" type="curve" smooth="yes"/>
      <point x="585" y="444"/>
      <point x="510" y="514"/>
    </contour>
    <contour>
      <point x="306" y="372" type="curve" smooth="yes"/>
      <point x="354" y="372"/>
      <point x="365" y="352"/>
      <point x="365" y="249" type="curve" smooth="yes"/>
      <point x="365" y="149"/>
      <point x="354" y="130"/>
      <point x="306" y="130" type="curve" smooth="yes"/>
      <point x="257" y="130"/>
      <point x="246" y="149"/>
      <point x="246" y="249" type="curve" smooth="yes"/>
      <point x="246" y="352"/>
      <point x="257" y="372"/>
    </contour>
  </outline>
</glyph>
<glyph name="asciitilde" format="2">
  <advance width="500"/>
  <unicode hex="007E"/>
  <outline>
    <contour>
      <point x="130" y="376" type="curve" smooth="yes"/>
      <point x="73" y="377"/>
      <point x="24" y="326"/>
      <point x="45" y="207" type="curve"/>
      <point x="132" y="207" type="line"/>
      <point x="132" y="239"/>
      <point x="130" y="250"/>
      <point x="160" y="245" type="curve" smooth="yes"/>
      <point x="193" y="239"/>
      <point x="322" y="203"/>
      <point x="370" y="202" type="curve" smooth="yes"/>
      <point x="432" y="200"/>
      <point x="476" y="255"/>
      <point x="455" y="371" type="curve"/>
      <point x="368" y="371" type="line"/>
      <point x="368" y="339"/>
      <point x="369" y="327"/>
      <point x="339" y="333" type="curve" smooth="yes"/>
      <point x="312" y="338"/>
      <point x="177" y="375"/>
    </contour>
  </outline>
</glyph>
<glyph name="exclamdown" format="2">
  <advance width="312"/>
  <unicode hex="00A1"/>
  <outline>
    <contour>
      <point x="238" y="293" type="line"/>
      <point x="74" y="293" type="line"/>
      <point x="52" y="59" type="line"/>
      <point x="52" y="-175" type="line"/>
      <point x="260" y="-175" type="line"/>
      <point x="260" y="59" type="line"/>
    </contour>
    <contour>
      <point x="180" y="520" type="curve" smooth="yes"/>
      <point x="133" y="520" type="line" smooth="yes"/>
      <point x="78" y="520"/>
      <point x="61" y="503"/>
      <point x="61" y="448" type="curve" smooth="yes"/>
      <point x="61" y="407" type="line" smooth="yes"/>
      <point x="61" y="352"/>
      <point x="78" y="335"/>
      <point x="133" y="335" type="curve" smooth="yes"/>
      <point x="180" y="335" type="line" smooth="yes"/>
      <point x="235" y="335"/>
      <point x="252" y="352"/>
      <point x="252" y="407" type="curve" smooth="yes"/>
      <point x="252" y="448" type="line" smooth="yes"/>
      <point x="252" y="503"/>
      <point x="235" y="520"/>
    </contour>
  </outline>
</glyph>
<glyph name="yen" format="2">
  <advance width="710"/>
  <unicode hex="00A5"/>
  <outline>
    <contour>
      <point x="692" y="690" type="line"/>
      <point x="469" y="690" type="line"/>
      <point x="383" y="484" type="line" smooth="yes"/>
      <point x="371" y="455"/>
      <point x="367" y="417"/>
      <point x="362" y="386" type="curve"/>
      <point x="349" y="386" type="line"/>
      <point x="344" y="417"/>
      <point x="341" y="453"/>
      <point x="328" y="483" type="curve" smooth="yes"/>
      <point x="241" y="690" type="line"/>
      <point x="18" y="690" type="line"/>
      <point x="205" y="300" type="line"/>
      <point x="508" y="307" type="line"/>
    </contour>
    <contour>
      <point x="464" y="173" type="line"/>
      <point x="247" y="173" type="line"/>
      <point x="247" y="0" type="line"/>
      <point x="464" y="0" type="line"/>
    </contour>
    <contour>
      <point x="611" y="238" type="line"/>
      <point x="99" y="238" type="line"/>
      <point x="101" y="128" type="line"/>
      <point x="611" y="128" type="line"/>
    </contour>
    <contour>
      <point x="611" y="378" type="line"/>
      <point x="99" y="378" type="line"/>
      <point x="101" y="268" type="line"/>
      <point x="611" y="268" type="line"/>
    </contour>
  </outline>
</glyph>
<glyph name="twosuperior" format="2">
  <advance width="431"/>
  <unicode hex="00B2"/>
  <outline>
    <contour>
      <point x="201" y="781" type="curve" smooth="yes"/>
      <point x="171" y="781"/>
      <point x="107" y="780"/>
      <point x="41" y="769" type="curve"/>
      <point x="45" y="652" type="line"/>
      <point x="106" y="650"/>
      <point x="138" y="650"/>
      <point x="184" y="650" type="curve" smooth="yes"/>
      <point x="207" y="650"/>
      <point x="218" y="649"/>
      <point x="212" y="640" type="curve" smooth="yes"/>
      <point x="204" y="628"/>
      <point x="175" y="601"/>
      <point x="134" y="566" type="curve" smooth="yes"/>
      <point x="59" y="503" type="line" smooth="yes"/>
      <point x="41" y="486"/>
      <point x="37" y="465"/>
      <point x="37" y="439" type="curve" smooth="yes"/>
      <point x="37" y="360" type="line"/>
      <point x="396" y="360" type="line"/>
      <point x="396" y="491" type="line"/>
      <point x="288" y="494" type="line" smooth="yes"/>
      <point x="267" y="495"/>
      <point x="251" y="492"/>
      <point x="231" y="486" type="curve"/>
      <point x="322" y="561" type="line" smooth="yes"/>
      <point x="364" y="596"/>
      <point x="386" y="637"/>
      <point x="386" y="663" type="curve" smooth="yes"/>
      <point x="386" y="761"/>
      <point x="327" y="781"/>
    </contour>
  </outline>
</glyph>
<glyph name="paragraph" format="2">
  <advance width="621"/>
  <unicode hex="00B6"/>
  <outline>
    <contour>
      <point x="357" y="702" type="curve" smooth="yes"/>
      <point x="115" y="702"/>
      <point x="20" y="635"/>
      <point x="20" y="450" type="curve" smooth="yes"/>
      <point x="20" y="284"/>
      <point x="90" y="213"/>
      <point x="266" y="200" type="curve"/>
      <point x="358" y="579" type="line"/>
      <point x="408" y="579"/>
      <point x="490" y="576"/>
      <point x="543" y="567" type="curve"/>
      <point x="549" y="685" type="line"/>
      <point x="490" y="698"/>
      <point x="410" y="702"/>
    </contour>
    <contour>
      <point x="383" y="685" type="line"/>
      <point x="256" y="685" type="line"/>
      <point x="256" y="-210" type="line"/>
      <point x="383" y="-210" type="line"/>
    </contour>
    <contour>
      <point x="549" y="685" type="line"/>
      <point x="422" y="685" type="line"/>
      <point x="422" y="0" type="line"/>
      <point x="549" y="0" type="line"/>
    </contour>
  </outline>
</glyph>
<glyph name="onequarter" format="2">
  <advance width="944"/>
  <unicode hex="00BC"/>
  <outline>
    <contour>
      <point x="683" y="690" type="line"/>
      <point x="557" y="690" type="line"/>
      <point x="170" y="0" type="line"/>
      <point x="296" y="0" type="line"/>
    </contour>
    <contour>
      <point x="280" y="690" type="line"/>
      <point x="120" y="690" type="line"/>
      <point x="19" y="651" type="line"/>
      <point x="37" y="553" type="line"/>
      <point x="126" y="567" type="line"/>
      <point x="121" y="546"/>
      <point x="120" y="527"/>
      <point x="120" y="507" type="curve" smooth="yes"/>
      <point x="120" y="276" type="line"/>
      <point x="280" y="276" type="line"/>
    </contour>
    <contour>
      <point x="751" y="414" type="line"/>
      <point x="610" y="414" type="line"/>
      <point x="507" y="141" type="line" smooth="yes"/>
      <point x="493" y="107"/>
      <point x="518" y="76"/>
      <point x="556" y="76" type="curve" smooth="yes"/>
      <point x="876" y="76" type="line"/>
      <point x="920" y="90" type="line"/>
      <point x="920" y="177" type="line"/>
      <point x="678" y="177" type="line" smooth="yes"/>
      <point x="669" y="177"/>
      <point x="665" y="179"/>
      <point x="668" y="187" type="curve" smooth="yes"/>
    </contour>
    <contour>
      <point x="875" y="331" type="line"/>
      <point x="753" y="331" type="line"/>
      <point x="728" y="270" type="line"/>
      <point x="728" y="0" type="line"/>
      <point x="875" y="0" type="line"/>
    </contour>
  </outline>
</glyph>
<glyph name="multiply" format="2">
  <advance width="506"/>
  <unicode hex="00D7"/>
  <outline>
    <contour>
      <point x="392" y="516" type="line"/>
      <point x="489" y="400" type="line"/>
      <point x="115" y="70" type="line"/>
      <point x="19" y="185" type="line"/>
    </contour>
    <contour>
      <point x="115" y="516" type="line"/>
      <point x="489" y="185" type="line"/>
      <point x="392" y="70" type="line"/>
      <point x="19" y="400" type="line"/>
    </contour>
  </outline>
</glyph>
<glyph name="thorn" format="2">
  <advance width="620"/>
  <unicode hex="00FE"/>
  <outline>
    <contour>
      <point x="410" y="512" type="curve" smooth="yes"/>
      <point x="303" y="512"/>
      <point x="247" y="470"/>
      <point x="219" y="421" type="curve"/>
      <point x="250" y="342" type="line"/>
      <point x="270" y="352"/>
      <point x="287" y="361"/>
      <point x="321" y="361" type="curve" smooth="yes"/>
      <point x="360" y="361"/>
      <point x="376" y="350"/>
      <point x="376" y="242" type="curve" smooth="yes"/>
      <point x="376" y="135"/>
      <point x="360" y="123"/>
      <point x="318" y="123" type="curve" smooth="yes"/>
      <point x="278" y="123"/>
      <point x="257" y="135"/>
      <point x="230" y="144" type="curve"/>
      <point x="214" y="62" type="line"/>
      <point x="255" y="6"/>
      <point x="327" y="-14"/>
      <point x="403" y="-14" type="curve" smooth="yes"/>
      <point x="527" y="-14"/>
      <point x="592" y="38"/>
      <point x="592" y="244" type="curve" smooth="yes"/>
      <point x="592" y="414"/>
      <point x="542" y="512"/>
    </contour>
    <contour>
      <point x="253" y="700" type="line"/>
      <point x="43" y="700" type="line"/>
      <point x="43" y="-180" type="line"/>
      <point x="253" y="-180" type="line"/>
      <point x="253" y="-81" type="line" smooth="yes"/>
      <point x="254" y="-34"/>
      <point x="250" y="19"/>
      <point x="247" y="62" type="curve"/>
      <point x="253" y="74" type="line"/>
      <point x="253" y="445" type="line"/>
      <point x="247" y="457" type="line"/>
      <point x="250" y="500"/>
      <point x="254" y="553"/>
      <point x="253" y="600" type="curve"/>
    </contour>
  </outline>
</glyph>
<glyph name="Hbar" format="2">
  <advance width="714"/>
  <unicode hex="0126"/>
  <outline>
    <contour>
      <point x="712" y="601" type="line"/>
      <point x="4" y="601" type="line"/>
      <point x="4" y="507" type="line"/>
      <point x="712" y="507" type="line"/>
    </contour>
    <component base="H"/>
  </outline>
</glyph>
<glyph name="hbar" format="2">
  <advance width="624"/>
  <unicode hex="0127"/>
  <outline>
    <contour>
      <point x="362" y="631" type="line"/>
      <point x="-9" y="631" type="line"/>
      <point x="-9" y="547" type="line"/>
      <point x="362" y="547" type="line"/>
    </contour>
    <component base="h" xOffset="3"/>
  </outline>
</glyph>
<glyph name="kgreenlandic" format="2">
  <advance width="609"/>
  <unicode hex="0138"/>
  <outline>
    <contour>
      <point x="599" y="500" type="line"/>
      <point x="369" y="500" type="line"/>
      <point x="241" y="255" type="line"/>
      <point x="387" y="0" type="line"/>
      <point x="618" y="0" type="line"/>
      <point x="494" y="190" type="line" smooth="yes"/>
      <point x="476" y="217"/>
      <point x="451" y="249"/>
      <point x="436" y="257" type="curve"/>
      <point x="436" y="261" type="line"/>
      <point x="451" y="270"/>
      <point x="478" y="294"/>
      <point x="494" y="321" type="curve" smooth="yes"/>
    </contour>
    <contour>
      <point x="253" y="500" type="line"/>
      <point x="43" y="500" type="line"/>
      <point x="43" y="0" type="line"/>
      <point x="253" y="0" type="line"/>
      <point x="253" y="121" type="line" smooth="yes"/>
      <point x="253" y="160"/>
      <point x="243" y="214"/>
      <point x="232" y="257" type="curve"/>
      <point x="246" y="303"/>
      <point x="253" y="359"/>
      <point x="253" y="410" type="curve" smooth="yes"/>
    </contour>
    <contour>
      <point x="308" y="312" type="line"/>
      <point x="191" y="312" type="line"/>
      <point x="191" y="194" type="line"/>
      <point x="308" y="194" type="line"/>
    </contour>
  </outline>
</glyph>
<glyph name="Tbar" format="2">
  <advance width="627"/>
  <unicode hex="0166"/>
  <outline>
    <contour>
      <point x="537" y="401" type="line"/>
      <point x="88" y="401" type="line"/>
      <point x="88" y="307" type="line"/>
      <point x="537" y="307" type="line"/>
    </contour>
    <component base="T" xOffset="2"/>
  </outline>
</glyph>
<glyph name="Schwa" format="2">
  <advance width="673"/>
  <unicode hex="018F"/>
  <outline>
    <contour>
      <point x="338" y="-12" type="curve" smooth="yes"/>
      <point x="552" y="-12"/>
      <point x="641" y="82"/>
      <point x="641" y="344" type="curve" smooth="yes"/>
      <point x="641" y="601"/>
      <point x="548" y="703"/>
      <point x="313" y="703" type="curve" smooth="yes"/>
      <point x="233" y="703"/>
      <point x="126" y="692"/>
      <point x="57" y="665" type="curve"/>
      <point x="71" y="532" type="line"/>
      <point x="147" y="543"/>
      <point x="238" y="548"/>
      <point x="306" y="548" type="curve" smooth="yes"/>
      <point x="450" y="548"/>
      <point x="434" y="486"/>
      <point x="434" y="336" type="curve" smooth="yes"/>
      <point x="434" y="190"/>
      <point x="431" y="147"/>
      <point x="330" y="147" type="curve" smooth="yes"/>
      <point x="259" y="147"/>
      <point x="237" y="166"/>
      <point x="237" y="213" type="curve" smooth="yes"/>
      <point x="237" y="248"/>
      <point x="252" y="272"/>
      <point x="303" y="272" type="curve" smooth="yes"/>
      <point x="567" y="272" type="line"/>
      <point x="567" y="412" type="line"/>
      <point x="210" y="412" type="line" smooth="yes"/>
      <point x="97" y="412"/>
      <point x="30" y="338"/>
      <point x="30" y="217" type="curve" smooth="yes"/>
      <point x="30" y="71"/>
      <point x="129" y="-12"/>
    </contour>
  </outline>
</glyph>
<glyph name="Ohorn" format="2">
  <advance width="736"/>
  <unicode hex="01A0"/>
  <anchor x="350" y="0" name="bottom"/>
  <anchor x="354" y="732" name="top"/>
  <outline>
    <contour>
      <point x="353" y="704" type="curve" smooth="yes"/>
      <point x="117" y="704"/>
      <point x="32" y="629"/>
      <point x="32" y="345" type="curve" smooth="yes"/>
      <point x="32" y="61"/>
      <point x="117" y="-14"/>
      <point x="353" y="-14" type="curve" smooth="yes"/>
      <point x="590" y="-14"/>
      <point x="675" y="61"/>
      <point x="675" y="345" type="curve" smooth="yes"/>
      <point x="675" y="629"/>
      <point x="590" y="704"/>
    </contour>
    <contour>
      <point x="353" y="543" type="curve" smooth="yes"/>
      <point x="427" y="543"/>
      <point x="446" y="505"/>
      <point x="446" y="345" type="curve" smooth="yes"/>
      <point x="446" y="185"/>
      <point x="427" y="147"/>
      <point x="353" y="147" type="curve" smooth="yes"/>
      <point x="279" y="147"/>
      <point x="260" y="185"/>
      <point x="260" y="345" type="curve" smooth="yes"/>
      <point x="260" y="505"/>
      <point x="279" y="543"/>
    </contour>
    <component base="horncomb" xOffset="826" yOffset="185"/>
  </outline>
</glyph>
<glyph name="Aringacute" format="2">
  <advance width="683"/>
  <unicode hex="01FA"/>
  <outline>
    <contour>
      <point x="440" y="630" type="curve" smooth="yes"/>
      <point x="243" y="630" type="line" smooth="yes"/>
      <point x="208" y="630"/>
      <point x="181" y="608"/>
      <point x="170" y="574" type="curve" smooth="yes"/>
      <point x="-9" y="0" type="line"/>
      <point x="212" y="0" type="line"/>
      <point x="316" y="389" type="line" smooth="yes"/>
      <point x="323" y="414"/>
      <point x="325" y="443"/>
      <point x="328" y="468" type="curve"/>
      <point x="355" y="468" type="line"/>
      <point x="357" y="443"/>
      <point x="360" y="414"/>
      <point x="367" y="389" type="curve" smooth="yes"/>
      <point x="471" y="0" type="line"/>
      <point x="692" y="0" type="line"/>
      <point x="513" y="574" type="line" smooth="yes"/>
      <point x="502" y="608"/>
      <point x="475" y="630"/>
    </contour>
    <contour>
      <point x="525" y="301" type="line"/>
      <point x="158" y="301" type="line"/>
      <point x="158" y="149" type="line"/>
      <point x="525" y="149" type="line"/>
    </contour>
    <contour>
      <point x="408" y="1139" type="line"/>
      <point x="175" y="989" type="line"/>
      <point x="232" y="903" type="line"/>
      <point x="487" y="1006" type="line"/>
    </contour>
    <component base="ring" xOffset="184" yOffset="129"/>
  </outline>
</glyph>
<glyph name="ringhalfleft" format="2">
  <advance width="179"/>
  <unicode hex="02BF"/>
  <anchor x="94" y="552" name="_top"/>
  <outline>
    <contour>
      <point x="159" y="700" type="curve"/>
      <point x="159" y="780" type="line"/>
      <point x="89" y="780"/>
      <point x="30" y="724"/>
      <point x="30" y="655" type="curve" smooth="yes"/>
      <point x="30" y="585"/>
      <point x="89" y="530"/>
      <point x="159" y="530" type="curve"/>
      <point x="159" y="610" type="line"/>
      <point x="135" y="610"/>
      <point x="115" y="630"/>
      <point x="115" y="655" type="curve" smooth="yes"/>
      <point x="115" y="679"/>
      <point x="135" y="700"/>
    </contour>
  </outline>
</glyph>
<glyph name="breve" format="2">
  <advance width="411"/>
  <unicode hex="02D8"/>
  <anchor x="206" y="532" name="_top"/>
  <outline>
    <contour>
      <point x="287" y="719" type="line"/>
      <point x="287" y="677"/>
      <point x="265" y="660"/>
      <point x="206" y="660" type="curve" smooth="yes"/>
      <point x="146" y="660"/>
      <point x="124" y="677"/>
      <point x="124" y="719" type="curve"/>
      <point x="27" y="706" type="line"/>
      <point x="11" y="617"/>
      <point x="83" y="534"/>
      <point x="206" y="534" type="curve" smooth="yes"/>
      <point x="329" y="534"/>
      <point x="400" y="617"/>
      <point x="384" y="706" type="curve"/>
    </contour>
  </outline>
</glyph>
<glyph name="hungarumlautcomb" format="2">
  <unicode hex="030B"/>
  <anchor x="-317" y="523" name="_top"/>
  <outline>
    <contour>
      <point x="-397" y="756" type="line"/>
      <point x="-520" y="563" type="line"/>
      <point x="-437" y="496" type="line"/>
      <point x="-268" y="672" type="line"/>
    </contour>
    <contour>
      <point x="-182" y="756" type="line"/>
      <point x="-305" y="562" type="line"/>
      <point x="-223" y="496" type="line"/>
      <point x="-53" y="672" type="line"/>
    </contour>
  </outline>
</glyph>
<glyph name="Be-cy" format="2">
  <advance width="648"/>
  <unicode hex="0411"/>
  <outline>
    <contour>
      <point x="579" y="690" type="line"/>
      <point x="493" y="695"/>
      <point x="408" y="698"/>
      <point x="313" y="698" type="curve" smooth="yes"/>
      <point x="234" y="698"/>
      <point x="144" y="696"/>
      <point x="56" y="690" type="curve"/>
      <point x="56" y="0" type="line"/>
      <point x="273" y="0" type="line"/>
      <point x="273" y="535" type="line"/>
      <point x="563" y="535" type="line"/>
    </contour>
    <contour>
      <point x="342" y="423" type="curve" smooth="yes"/>
      <point x="76" y="423" type="line"/>
      <point x="76" y="292" type="line"/>
      <point x="342" y="292" type="line" smooth="yes"/>
      <point x="400" y="292"/>
      <point x="411" y="278"/>
      <point x="411" y="217" type="curve" smooth="yes"/>
      <point x="411" y="156"/>
      <point x="400" y="142"/>
      <point x="342" y="142" type="curve" smooth="yes"/>
      <point x="213" y="142"/>
      <point x="110" y="143"/>
      <point x="77" y="145" type="curve"/>
      <point x="62" y="0" type="line"/>
      <point x="156" y="-7"/>
      <point x="240" y="-8"/>
      <point x="371" y="-8" type="curve" smooth="yes"/>
      <point x="547" y="-8"/>
      <point x="628" y="41"/>
      <point x="628" y="210" type="curve" smooth="yes"/>
      <point x="628" y="375"/>
      <point x="556" y="423"/>
    </contour>
  </outline>
</glyph>
<glyph name="En-cy" format="2">
  <advance width="722"/>
  <unicode hex="041D"/>
  <outline>
    <contour>
      <point x="274" y="690" type="line"/>
      <point x="57" y="690" type="line"/>
      <point x="57" y="0" type="line"/>
      <point x="274" y="0" type="line"/>
    </contour>
    <contour>
      <point x="459" y="442" type="line"/>
      <point x="266" y="442" type="line"/>
      <point x="266" y="290" type="line"/>
      <point x="459" y="290" type="line"/>
    </contour>
    <contour>
      <point x="665" y="690" type="line"/>
      <point x="448" y="690" type="line"/>
      <point x="448" y="0" type="line"/>
      <point x="665" y="0" type="line"/>
    </contour>
  </outline>
</glyph>
<glyph name="Er-cy" format="2">
  <advance width="650"/>
  <unicode hex="0420"/>
  <outline>
    <contour>
      <point x="348" y="700" type="curve" smooth="yes"/>
      <point x="210" y="700"/>
      <point x="148" y="699"/>
      <point x="56" y="690" type="curve"/>
      <point x="71" y="542" type="line"/>
      <point x="105" y="546"/>
      <point x="207" y="547"/>
      <point x="343" y="547" type="curve" smooth="yes"/>
      <point x="402" y="547"/>
      <point x="417" y="531"/>
      <point x="417" y="465" type="curve" smooth="yes"/>
      <point x="417" y="401"/>
      <point x="402" y="385"/>
      <point x="343" y="385" type="curve" smooth="yes"/>
      <point x="252" y="385"/>
      <point x="157" y="385"/>
      <point x="70" y="385" type="curve"/>
      <point x="67" y="287" type="line"/>
      <point x="99" y="265"/>
      <point x="244" y="232"/>
      <point x="378" y="232" type="curve" smooth="yes"/>
      <point x="567" y="232"/>
      <point x="634" y="283"/>
      <point x="634" y="465" type="curve" smooth="yes"/>
      <point x="634" y="649"/>
      <point x="567" y="700"/>
    </contour>
    <contour>
      <point x="273" y="690" type="line"/>
      <point x="56" y="690" type="line"/>
      <point x="56" y="0" type="line"/>
      <point x="273" y="0" type="line"/>
    </contour>
  </outline>
</glyph>
<glyph name="Hardsign-cy" format="2">
  <advance width="786"/>
  <unicode hex="042A"/>
  <outline>
    <contour>
      <point x="491" y="453" type="curve" smooth="yes"/>
      <point x="237" y="453" type="line"/>
      <point x="237" y="322" type="line"/>
      <point x="491" y="322" type="line" smooth="yes"/>
      <point x="539" y="322"/>
      <point x="548" y="304"/>
      <point x="548" y="231" type="curve" smooth="yes"/>
      <point x="548" y="158"/>
      <point x="539" y="142"/>
      <point x="491" y="142" type="curve" smooth="yes"/>
      <point x="368" y="142"/>
      <point x="271" y="143"/>
      <point x="238" y="145" type="curve"/>
      <point x="224" y="0" type="line"/>
      <point x="315" y="-7"/>
      <point x="392" y="-8"/>
      <point x="530" y="-8" type="curve" smooth="yes"/>
      <point x="693" y="-8"/>
      <point x="766" y="43"/>
      <point x="766" y="223" type="curve" smooth="yes"/>
      <point x="766" y="401"/>
      <point x="698" y="453"/>
    </contour>
    <contour>
      <point x="436" y="690" type="line"/>
      <point x="218" y="690" type="line"/>
      <point x="218" y="0" type="line"/>
      <point x="436" y="0" type="line"/>
    </contour>
    <contour>
      <point x="336" y="690" type="line"/>
      <point x="9" y="690" type="line"/>
      <point x="9" y="528" type="line"/>
      <point x="336" y="528" type="line"/>
    </contour>
  </outline>
</glyph>
<glyph name="Softsign-cy" format="2">
  <advance width="634"/>
  <unicode hex="042C"/>
  <outline>
    <contour>
      <point x="335" y="453" type="curve" smooth="yes"/>
      <point x="77" y="453" type="line"/>
      <point x="77" y="322" type="line"/>
      <point x="335" y="322" type="line" smooth="yes"/>
      <point x="387" y="322"/>
      <point x="397" y="304"/>
      <point x="397" y="231" type="curve" smooth="yes"/>
      <point x="397" y="158"/>
      <point x="387" y="142"/>
      <point x="335" y="142" type="curve" smooth="yes"/>
      <point x="210" y="142"/>
      <point x="111" y="143"/>
      <point x="78" y="145" type="curve"/>
      <point x="63" y="0" type="line"/>
      <point x="155" y="-7"/>
      <point x="233" y="-8"/>
      <point x="374" y="-8" type="curve" smooth="yes"/>
      <point x="540" y="-8"/>
      <point x="614" y="43"/>
      <point x="614" y="223" type="curve" smooth="yes"/>
      <point x="614" y="401"/>
      <point x="545" y="453"/>
    </contour>
    <contour>
      <point x="274" y="690" type="line"/>
      <point x="57" y="690" type="line"/>
      <point x="57" y="0" type="line"/>
      <point x="274" y="0" type="line"/>
    </contour>
  </outline>
</glyph>
<glyph name="Iu-cy" format="2">
  <advance width="1021"/>
  <unicode hex="042E"/>
  <outline>
    <contour>
      <point x="670" y="704" type="curve" smooth="yes"/>
      <point x="451" y="704"/>
      <point x="373" y="629"/>
      <point x="373" y="345" type="curve" smooth="yes"/>
      <point x="373" y="61"/>
      <point x="451" y="-14"/>
      <point x="670" y="-14" type="curve" smooth="yes"/>
      <point x="905" y="-14"/>
      <point x="989" y="61"/>
      <point x="989" y="345" type="curve" smooth="yes"/>
      <point x="989" y="629"/>
      <point x="905" y="704"/>
    </contour>
    <contour>
      <point x="275" y="690" type="line"/>
      <point x="57" y="690" type="line"/>
      <point x="57" y="0" type="line"/>
      <point x="275" y="0" type="line"/>
    </contour>
    <contour>
      <point x="451" y="427" type="line"/>
      <point x="266" y="427" type="line"/>
      <point x="266" y="285" type="line"/>
      <point x="451" y="285" type="line"/>
    </contour>
    <contour>
      <point x="670" y="543" type="curve" smooth="yes"/>
      <point x="742" y="543"/>
      <point x="759" y="505"/>
      <point x="759" y="345" type="curve" smooth="yes"/>
      <point x="759" y="185"/>
      <point x="742" y="147"/>
      <point x="670" y="147" type="curve" smooth="yes"/>
      <point x="600" y="147"/>
      <point x="585" y="185"/>
      <point x="585" y="345" type="curve" smooth="yes"/>
      <point x="585" y="505"/>
      <point x="600" y="543"/>
    </contour>
  </outline>
</glyph>
<glyph name="ze-cy" format="2">
  <advance width="535"/>
  <unicode hex="0437"/>
  <anchor x="260" y="-8" name="bottom"/>
  <anchor x="262" y="547" name="top"/>
  <outline>
    <contour>
      <point x="227" y="514" type="curve" smooth="yes"/>
      <point x="182" y="514"/>
      <point x="102" y="509"/>
      <point x="29" y="487" type="curve"/>
      <point x="42" y="353" type="line"/>
      <point x="102" y="360"/>
      <point x="172" y="365"/>
      <point x="241" y="365" type="curve" smooth="yes"/>
      <point x="281" y="365"/>
      <point x="288" y="364"/>
      <point x="288" y="339" type="curve" smooth="yes"/>
      <point x="288" y="318"/>
      <point x="281" y="317"/>
      <point x="249" y="315" type="curve" smooth="yes"/>
      <point x="82" y="311" type="line"/>
      <point x="82" y="194" type="line"/>
      <point x="250" y="190" type="line" smooth="yes"/>
      <point x="292" y="188"/>
      <point x="299" y="187"/>
      <point x="299" y="164" type="curve" smooth="yes"/>
      <point x="299" y="133"/>
      <point x="290" y="132"/>
      <point x="251" y="132" type="curve" smooth="yes"/>
      <point x="195" y="132"/>
      <point x="119" y="135"/>
      <point x="32" y="144" type="curve"/>
      <point x="19" y="10" type="line"/>
      <point x="105" y="-10"/>
      <point x="183" y="-14"/>
      <point x="266" y="-14" type="curve" smooth="yes"/>
      <point x="426" y="-14"/>
      <point x="513" y="0"/>
      <point x="513" y="125" type="curve" smooth="yes"/>
      <point x="513" y="206"/>
      <point x="476" y="249"/>
      <point x="383" y="255" type="curve"/>
      <point x="383" y="260" type="line"/>
      <point x="460" y="266"/>
      <point x="493" y="297"/>
      <point x="493" y="376" type="curve" smooth="yes"/>
      <point x="493" y="498"/>
      <point x="415" y="514"/>
    </contour>
  </outline>
</glyph>
<glyph name="ii-cy" format="2">
  <advance width="632"/>
  <unicode hex="0438"/>
  <guideline x="232" y="331" angle="270"/>
  <anchor x="317" y="547" name="top"/>
  <outline>
    <contour>
      <point x="586" y="500" type="line"/>
      <point x="400" y="500" type="line"/>
      <point x="268" y="288" type="line" smooth="yes"/>
      <point x="252" y="262"/>
      <point x="238" y="241"/>
      <point x="229" y="210" type="curve"/>
      <point x="224" y="210" type="line"/>
      <point x="229" y="241"/>
      <point x="232" y="264"/>
      <point x="232" y="291" type="curve" smooth="yes"/>
      <point x="232" y="500" type="line"/>
      <point x="46" y="500" type="line"/>
      <point x="46" y="0" type="line"/>
      <point x="232" y="0" type="line"/>
      <point x="360" y="198" type="line" smooth="yes"/>
      <point x="375" y="221"/>
      <point x="393" y="259"/>
      <point x="402" y="288" type="curve"/>
      <point x="407" y="288" type="line"/>
      <point x="402" y="253"/>
      <point x="399" y="225"/>
      <point x="399" y="194" type="curve" smooth="yes"/>
      <point x="399" y="-2" type="line"/>
      <point x="586" y="0" type="line"/>
    </contour>
  </outline>
</glyph>
<glyph name="ka-cy" format="2">
  <advance width="594"/>
  <unicode hex="043A"/>
  <anchor x="311" y="547" name="top"/>
  <outline>
    <contour>
      <point x="570" y="500" type="curve"/>
      <point x="358" y="500" type="line"/>
      <point x="317" y="322"/>
      <point x="322" y="325"/>
      <point x="257" y="325" type="curve"/>
      <point x="261" y="191" type="line"/>
      <point x="321" y="191"/>
      <point x="313" y="213"/>
      <point x="369" y="0" type="curve"/>
      <point x="587" y="0" type="line"/>
      <point x="516" y="254"/>
      <point x="522" y="238"/>
      <point x="401" y="257" type="curve"/>
      <point x="401" y="263" type="line"/>
      <point x="521" y="281"/>
      <point x="503" y="272"/>
    </contour>
    <contour>
      <point x="255" y="500" type="line"/>
      <point x="46" y="500" type="line"/>
      <point x="46" y="0" type="line"/>
      <point x="255" y="0" type="line"/>
      <point x="255" y="152" type="line" smooth="yes"/>
      <point x="255" y="183"/>
      <point x="241" y="229"/>
      <point x="225" y="262" type="curve"/>
      <point x="245" y="299"/>
      <point x="255" y="350"/>
      <point x="255" y="391" type="curve" smooth="yes"/>
    </contour>
    <contour>
      <point x="303" y="325" type="line"/>
      <point x="206" y="325" type="line"/>
      <point x="206" y="191" type="line"/>
      <point x="303" y="191" type="line"/>
    </contour>
  </outline>
</glyph>
<glyph name="te-cy" format="2">
  <advance width="537"/>
  <unicode hex="0442"/>
  <outline>
    <contour>
      <point x="373" y="500" type="line"/>
      <point x="164" y="500" type="line"/>
      <point x="164" y="0" type="line"/>
      <point x="373" y="0" type="line"/>
    </contour>
    <contour>
      <point x="526" y="500" type="line"/>
      <point x="11" y="500" type="line"/>
      <point x="11" y="344" type="line"/>
      <point x="526" y="344" type="line"/>
    </contour>
  </outline>
</glyph>
<glyph name="che-cy" format="2">
  <advance width="605"/>
  <unicode hex="0447"/>
  <anchor x="299" y="547" name="top"/>
  <outline>
    <contour>
      <point x="240" y="500" type="line"/>
      <point x="31" y="500" type="line"/>
      <point x="31" y="260" type="line" smooth="yes"/>
      <point x="31" y="178"/>
      <point x="84" y="141"/>
      <point x="203" y="141" type="curve" smooth="yes"/>
      <point x="267" y="141"/>
      <point x="332" y="156"/>
      <point x="386" y="181" type="curve"/>
      <point x="364" y="310" type="line"/>
      <point x="328" y="295"/>
      <point x="301" y="291"/>
      <point x="275" y="291" type="curve" smooth="yes"/>
      <point x="249" y="291"/>
      <point x="240" y="301"/>
      <point x="240" y="321" type="curve" smooth="yes"/>
    </contour>
    <contour>
      <point x="559" y="500" type="line"/>
      <point x="350" y="500" type="line"/>
      <point x="350" y="0" type="line"/>
      <point x="559" y="0" type="line"/>
    </contour>
  </outline>
</glyph>
<glyph name="yeru-cy" format="2">
  <advance width="842"/>
  <unicode hex="044B"/>
  <anchor x="416" y="547" name="top"/>
  <outline>
    <contour>
      <point x="283" y="343" type="curve" smooth="yes"/>
      <point x="63" y="343" type="line"/>
      <point x="63" y="227" type="line"/>
      <point x="283" y="227" type="line" smooth="yes"/>
      <point x="325" y="227"/>
      <point x="331" y="220"/>
      <point x="331" y="177" type="curve" smooth="yes"/>
      <point x="331" y="136"/>
      <point x="324" y="128"/>
      <point x="283" y="128" type="curve" smooth="yes"/>
      <point x="177" y="128"/>
      <point x="92" y="129"/>
      <point x="64" y="131" type="curve"/>
      <point x="52" y="0" type="line"/>
      <point x="131" y="-5"/>
      <point x="199" y="-6"/>
      <point x="320" y="-6" type="curve" smooth="yes"/>
      <point x="473" y="-6"/>
      <point x="542" y="33"/>
      <point x="542" y="169" type="curve" smooth="yes"/>
      <point x="542" y="306"/>
      <point x="479" y="343"/>
    </contour>
    <contour>
      <point x="248" y="500" type="line"/>
      <point x="46" y="500" type="line"/>
      <point x="46" y="0" type="line"/>
      <point x="248" y="0" type="line"/>
    </contour>
    <contour>
      <point x="796" y="500" type="line"/>
      <point x="585" y="500" type="line"/>
      <point x="585" y="0" type="line"/>
      <point x="796" y="0" type="line"/>
    </contour>
  </outline>
</glyph>
<glyph name="i-cy" format="2">
  <advance width="309"/>
  <unicode hex="0456"/>
  <outline>
    <contour>
      <point x="259" y="500" type="line"/>
      <point x="50" y="500" type="line"/>
      <point x="50" y="0" type="line"/>
      <point x="259" y="0" type="line"/>
    </contour>
    <contour>
      <point x="199" y="729" type="curve" smooth="yes"/>
      <point x="110" y="729" type="line" smooth="yes"/>
      <point x="69" y="729"/>
      <point x="49" y="709"/>
      <point x="49" y="667" type="curve" smooth="yes"/>
      <point x="49" y="616" type="line" smooth="yes"/>
      <point x="49" y="574"/>
      <point x="69" y="554"/>
      <point x="110" y="554" type="curve" smooth="yes"/>
      <point x="199" y="554" type="line" smooth="yes"/>
      <point x="240" y="554"/>
      <point x="260" y="574"/>
      <point x="260" y="616" type="curve" smooth="yes"/>
      <point x="260" y="667" type="line" smooth="yes"/>
      <point x="260" y="709"/>
      <point x="240" y="729"/>
    </contour>
  </outline>
</glyph>
<glyph name="yi-cy" format="2">
  <advance width="311"/>
  <unicode hex="0457"/>
  <outline>
    <contour>
      <point x="261" y="500" type="line"/>
      <point x="50" y="500" type="line"/>
      <point x="50" y="0" type="line"/>
      <point x="261" y="0" type="line"/>
    </contour>
    <contour>
      <point x="283" y="716" type="curve" smooth="yes"/>
      <point x="214" y="716" type="line" smooth="yes"/>
      <point x="188" y="716"/>
      <point x="175" y="703"/>
      <point x="175" y="677" type="curve" smooth="yes"/>
      <point x="175" y="614" type="line" smooth="yes"/>
      <point x="175" y="588"/>
      <point x="188" y="575"/>
      <point x="214" y="575" type="curve" smooth="yes"/>
      <point x="283" y="575" type="line" smooth="yes"/>
      <point x="309" y="575"/>
      <point x="322" y="588"/>
      <point x="322" y="614" type="curve" smooth="yes"/>
      <point x="322" y="677" type="line" smooth="yes"/>
      <point x="322" y="703"/>
      <point x="309" y="716"/>
    </contour>
    <contour>
      <point x="94" y="716" type="curve" smooth="yes"/>
      <point x="25" y="716" type="line" smooth="yes"/>
      <point x="-1" y="716"/>
      <point x="-14" y="703"/>
      <point x="-14" y="677" type="curve" smooth="yes"/>
      <point x="-14" y="614" type="line" smooth="yes"/>
      <point x="-14" y="588"/>
      <point x="-1" y="575"/>
      <point x="25" y="575" type="curve" smooth="yes"/>
      <point x="94" y="575" type="line" smooth="yes"/>
      <point x="120" y="575"/>
      <point x="133" y="588"/>
      <point x="133" y="614" type="curve" smooth="yes"/>
      <point x="133" y="677" type="line" smooth="yes"/>
      <point x="133" y="703"/>
      <point x="120" y="716"/>
    </contour>
  </outline>
</glyph>
<glyph name="tshe-cy" format="2">
  <advance width="628"/>
  <unicode hex="045B"/>
  <outline>
    <contour>
      <point x="453" y="424" type="curve" smooth="yes"/>
      <point x="382" y="424"/>
      <point x="302" y="390"/>
      <point x="232" y="319" type="curve"/>
      <point x="255" y="228" type="line"/>
      <point x="303" y="245"/>
      <point x="328" y="247"/>
      <point x="353" y="247" type="curve" smooth="yes"/>
      <point x="379" y="247"/>
      <point x="389" y="239"/>
      <point x="389" y="217" type="curve" smooth="yes"/>
      <point x="389" y="0" type="line"/>
      <point x="600" y="0" type="line"/>
      <point x="600" y="284" type="line" smooth="yes"/>
      <point x="600" y="376"/>
      <point x="550" y="424"/>
    </contour>
    <contour>
      <point x="277" y="700" type="line"/>
      <point x="66" y="700" type="line"/>
      <point x="66" y="0" type="line"/>
      <point x="277" y="0" type="line"/>
      <point x="277" y="296" type="line"/>
      <point x="257" y="308" type="line"/>
      <point x="267" y="341"/>
      <point x="277" y="401"/>
      <point x="277" y="461" type="curve" smooth="yes"/>
    </contour>
    <contour>
      <point x="443" y="557" type="line"/>
      <point x="10" y="557" type="line"/>
      <point x="10" y="457" type="line"/>
      <point x="443" y="457" type="line"/>
    </contour>
  </outline>
</glyph>
<glyph name="Yusbig-cy" format="2">
  <advance width="924"/>
  <unicode hex="046A"/>
  <outline>
    <contour>
      <point x="-15" y="0" type="curve"/>
      <point x="212" y="0" type="line"/>
      <point x="293" y="275"/>
      <point x="283" y="288"/>
      <point x="363" y="288" type="curve"/>
      <point x="360" y="262"/>
      <point x="358" y="239"/>
      <point x="358" y="225" type="curve" smooth="yes"/>
      <point x="358" y="0" type="line"/>
      <point x="565" y="0" type="line"/>
      <point x="565" y="225" type="line" smooth="yes"/>
      <point x="565" y="239"/>
      <point x="563" y="262"/>
      <point x="561" y="288" type="curve"/>
      <point x="642" y="288"/>
      <point x="631" y="278"/>
      <point x="712" y="0" type="curve"/>
      <point x="939" y="0" type="line"/>
      <point x="836" y="310"/>
      <point x="835" y="344"/>
      <point x="658" y="367" type="curve"/>
      <point x="658" y="373" type="line"/>
      <point x="842" y="615" type="line" smooth="yes"/>
      <point x="867" y="648"/>
      <point x="847" y="690"/>
      <point x="805" y="690" type="curve" smooth="yes"/>
      <point x="119" y="690" type="line" smooth="yes"/>
      <point x="77" y="690"/>
      <point x="57" y="648"/>
      <point x="82" y="615" type="curve" smooth="yes"/>
      <point x="266" y="373" type="line"/>
      <point x="266" y="367" type="line"/>
      <point x="90" y="344"/>
      <point x="88" y="310"/>
    </contour>
    <contour>
      <point x="459" y="385" type="line"/>
      <point x="334" y="552" type="line"/>
      <point x="589" y="552" type="line"/>
    </contour>
  </outline>
</glyph>
<glyph name="yusbig-cy" format="2">
  <advance width="799"/>
  <unicode hex="046B"/>
  <outline>
    <contour>
      <point x="-9" y="0" type="curve"/>
      <point x="206" y="0" type="line"/>
      <point x="266" y="189"/>
      <point x="254" y="199"/>
      <point x="307" y="199" type="curve"/>
      <point x="305" y="180"/>
      <point x="303" y="165"/>
      <point x="303" y="155" type="curve" smooth="yes"/>
      <point x="303" y="0" type="line"/>
      <point x="496" y="0" type="line"/>
      <point x="496" y="155" type="line" smooth="yes"/>
      <point x="496" y="165"/>
      <point x="494" y="180"/>
      <point x="493" y="199" type="curve"/>
      <point x="548" y="199"/>
      <point x="533" y="192"/>
      <point x="594" y="0" type="curve"/>
      <point x="808" y="0" type="line"/>
      <point x="725" y="235"/>
      <point x="728" y="239"/>
      <point x="587" y="265" type="curve"/>
      <point x="587" y="269" type="line"/>
      <point x="715" y="421" type="line" smooth="yes"/>
      <point x="744" y="456"/>
      <point x="722" y="500"/>
      <point x="678" y="500" type="curve" smooth="yes"/>
      <point x="122" y="500" type="line" smooth="yes"/>
      <point x="78" y="500"/>
      <point x="58" y="455"/>
      <point x="86" y="421" type="curve" smooth="yes"/>
      <point x="213" y="269" type="line"/>
      <point x="213" y="265" type="line"/>
      <point x="72" y="239"/>
      <point x="75" y="235"/>
    </contour>
    <contour>
      <point x="400" y="265" type="line"/>
      <point x="303" y="378" type="line"/>
      <point x="497" y="378" type="line"/>
    </contour>
  </outline>
</glyph>
<glyph name="Kastroke-cy" format="2">
  <advance width="701"/>
  <unicode hex="049E"/>
  <outline>
    <contour>
      <point x="-20" y="506" type="line"/>
      <point x="398" y="506" type="line"/>
      <point x="398" y="626" type="line"/>
      <point x="-20" y="626" type="line"/>
    </contour>
    <component base="Ka-cy" xOffset="33"/>
  </outline>
</glyph>
<glyph name="kabashkir-cy" format="2">
  <advance width="700"/>
  <unicode hex="04A1"/>
  <outline>
    <contour>
      <point x="676" y="500" type="curve"/>
      <point x="464" y="500" type="line"/>
      <point x="423" y="322"/>
      <point x="428" y="325"/>
      <point x="363" y="325" type="curve"/>
      <point x="367" y="191" type="line"/>
      <point x="427" y="191"/>
      <point x="419" y="213"/>
      <point x="475" y="0" type="curve"/>
      <point x="693" y="0" type="line"/>
      <point x="622" y="254"/>
      <point x="628" y="238"/>
      <point x="507" y="257" type="curve"/>
      <point x="507" y="263" type="line"/>
      <point x="627" y="281"/>
      <point x="609" y="272"/>
    </contour>
    <contour>
      <point x="361" y="500" type="line"/>
      <point x="152" y="500" type="line"/>
      <point x="152" y="0" type="line"/>
      <point x="361" y="0" type="line"/>
      <point x="361" y="152" type="line" smooth="yes"/>
      <point x="361" y="183"/>
      <point x="347" y="229"/>
      <point x="331" y="262" type="curve"/>
      <point x="351" y="299"/>
      <point x="361" y="350"/>
      <point x="361" y="391" type="curve" smooth="yes"/>
    </contour>
    <contour>
      <point x="409" y="325" type="line"/>
      <point x="312" y="325" type="line"/>
      <point x="312" y="191" type="line"/>
      <point x="409" y="191" type="line"/>
    </contour>
    <contour>
      <point x="-10" y="500" type="line"/>
      <point x="-10" y="350" type="line"/>
      <point x="262" y="350" type="line"/>
      <point x="262" y="500" type="line"/>
    </contour>
  </outline>
</glyph>
<glyph name="Pemiddlehook-cy" format="2">
  <advance width="1023"/>
  <unicode hex="04A6"/>
  <outline>
    <contour>
      <point x="704" y="-180" type="line"/>
      <point x="858" y="-162"/>
      <point x="1001" y="-82"/>
      <point x="1001" y="166" type="curve" smooth="yes"/>
      <point x="1001" y="368"/>
      <point x="941" y="454"/>
      <point x="804" y="454" type="curve" smooth="yes"/>
      <point x="740" y="454"/>
      <point x="657" y="429"/>
      <point x="608" y="388" type="curve"/>
      <point x="611" y="257" type="line"/>
      <point x="657" y="283"/>
      <point x="702" y="287"/>
      <point x="723" y="287" type="curve" smooth="yes"/>
      <point x="769" y="287"/>
      <point x="783" y="260"/>
      <point x="783" y="162" type="curve" smooth="yes"/>
      <point x="783" y="56"/>
      <point x="774" y="11"/>
      <point x="684" y="-30" type="curve"/>
    </contour>
    <contour>
      <point x="53" y="0" type="line"/>
      <point x="270" y="0" type="line"/>
      <point x="270" y="690" type="line"/>
      <point x="53" y="690" type="line"/>
    </contour>
    <contour>
      <point x="439" y="0" type="line"/>
      <point x="656" y="0" type="line"/>
      <point x="656" y="690" type="line"/>
      <point x="439" y="690" type="line"/>
    </contour>
    <contour>
      <point x="262" y="548" type="line"/>
      <point x="451" y="548" type="line"/>
      <point x="451" y="690" type="line"/>
      <point x="262" y="690" type="line"/>
    </contour>
  </outline>
</glyph>
<glyph name="Tedescender-cy" format="2">
  <advance width="623"/>
  <unicode hex="04AC"/>
  <outline>
    <contour>
      <point x="497" y="142" type="line"/>
      <point x="204" y="142" type="line"/>
      <point x="204" y="0" type="line"/>
      <point x="497" y="0" type="line"/>
    </contour>
    <contour>
      <point x="340" y="-151" type="line"/>
      <point x="497" y="-151" type="line"/>
      <point x="497" y="7" type="line"/>
      <point x="324" y="7" type="line"/>
    </contour>
    <component base="Te-cy"/>
  </outline>
</glyph>
<glyph name="tedescender-cy" format="2">
  <advance width="553"/>
  <unicode hex="04AD"/>
  <outline>
    <contour>
      <point x="382" y="500" type="line"/>
      <point x="171" y="500" type="line"/>
      <point x="171" y="0" type="line"/>
      <point x="382" y="0" type="line"/>
    </contour>
    <contour>
      <point x="548" y="500" type="line"/>
      <point x="5" y="500" type="line"/>
      <point x="5" y="359" type="line"/>
      <point x="548" y="359" type="line"/>
    </contour>
    <contour>
      <point x="462" y="136" type="line"/>
      <point x="257" y="136" type="line"/>
      <point x="257" y="0" type="line"/>
      <point x="462" y="0" type="line"/>
    </contour>
    <contour>
      <point x="462" y="5" type="line"/>
      <point x="308" y="5" type="line"/>
      <point x="323" y="-136" type="line"/>
      <point x="462" y="-136" type="line"/>
    </contour>
  </outline>
</glyph>
<glyph name="Ustraitstroke-cy" format="2">
  <advance width="609"/>
  <unicode hex="04B0"/>
  <outline>
    <contour>
      <point x="567" y="302" type="line"/>
      <point x="84" y="302" type="line"/>
      <point x="84" y="183" type="line"/>
      <point x="567" y="183" type="line"/>
    </contour>
    <component base="Ustrait-cy"/>
  </outline>
</glyph>
<glyph name="hadescender-cy" format="2">
  <advance width="606"/>
  <unicode hex="04B3"/>
  <outline>
    <contour>
      <point x="609" y="136" type="line"/>
      <point x="424" y="136" type="line"/>
      <point x="424" y="0" type="line"/>
      <point x="609" y="0" type="line"/>
    </contour>
    <contour>
      <point x="609" y="5" type="line"/>
      <point x="455" y="5" type="line"/>
      <point x="470" y="-136" type="line"/>
      <point x="609" y="-136" type="line"/>
    </contour>
    <component base="x"/>
  </outline>
</glyph>
<glyph name="cheabkhasian-cy" format="2">
  <advance width="726"/>
  <unicode hex="04BD"/>
  <outline>
    <contour>
      <point x="446" y="-12" type="curve" smooth="yes"/>
      <point x="536" y="-12"/>
      <point x="620" y="-2"/>
      <point x="691" y="34" type="curve"/>
      <point x="672" y="160" type="line"/>
      <point x="586" y="151"/>
      <point x="509" y="149"/>
      <point x="469" y="149" type="curve" smooth="yes"/>
      <point x="394" y="149"/>
      <point x="381" y="177"/>
      <point x="381" y="269" type="curve" smooth="yes"/>
      <point x="381" y="368"/>
      <point x="393" y="380"/>
      <point x="451" y="379" type="curve" smooth="yes"/>
      <point x="489" y="379"/>
      <point x="504" y="373"/>
      <point x="504" y="341" type="curve" smooth="yes"/>
      <point x="504" y="307"/>
      <point x="497" y="303"/>
      <point x="452" y="303" type="curve" smooth="yes"/>
      <point x="172" y="303" type="line" smooth="yes"/>
      <point x="138" y="303"/>
      <point x="113" y="328"/>
      <point x="128" y="400" type="curve"/>
      <point x="0" y="400" type="line"/>
      <point x="-23" y="246"/>
      <point x="41" y="204"/>
      <point x="172" y="204" type="curve" smooth="yes"/>
      <point x="511" y="204" type="line" smooth="yes"/>
      <point x="658" y="204"/>
      <point x="706" y="243"/>
      <point x="705" y="336" type="curve" smooth="yes"/>
      <point x="704" y="453"/>
      <point x="633" y="514"/>
      <point x="445" y="514" type="curve" smooth="yes"/>
      <point x="238" y="514"/>
      <point x="161" y="443"/>
      <point x="161" y="246" type="curve" smooth="yes"/>
      <point x="161" y="76"/>
      <point x="237" y="-12"/>
    </contour>
  </outline>
</glyph>
<glyph name="Palochka-cy" format="2">
  <advance width="321"/>
  <unicode hex="04C0"/>
  <outline>
    <contour>
      <point x="268" y="690" type="line"/>
      <point x="53" y="690" type="line"/>
      <point x="53" y="0" type="line"/>
      <point x="268" y="0" type="line"/>
    </contour>
  </outline>
</glyph>
<glyph name="Enhook-cy" format="2">
  <advance width="714"/>
  <unicode hex="04C7"/>
  <outline>
    <contour>
      <point x="270" y="690" type="line"/>
      <point x="53" y="690" type="line"/>
      <point x="53" y="0" type="line"/>
      <point x="270" y="0" type="line"/>
    </contour>
    <contour>
      <point x="455" y="442" type="line"/>
      <point x="262" y="442" type="line"/>
      <point x="262" y="290" type="line"/>
      <point x="455" y="290" type="line"/>
    </contour>
    <contour>
      <point x="444" y="690" type="line"/>
      <point x="444" y="91" type="line" smooth="yes"/>
      <point x="444" y="17"/>
      <point x="422" y="-55"/>
      <point x="329" y="-55" type="curve"/>
      <point x="329" y="-182" type="line"/>
      <point x="482" y="-221"/>
      <point x="661" y="-160"/>
      <point x="661" y="69" type="curve" smooth="yes"/>
      <point x="661" y="690" type="line"/>
    </contour>
  </outline>
</glyph>
<glyph name="Entail-cy" format="2">
  <advance width="734"/>
  <unicode hex="04C9"/>
  <outline>
    <contour>
      <point x="446" y="142" type="line"/>
      <point x="446" y="0" type="line"/>
      <point x="566" y="0" type="line"/>
      <point x="552" y="-151" type="line"/>
      <point x="709" y="-151" type="line"/>
      <point x="739" y="0" type="line"/>
      <point x="739" y="142" type="line"/>
    </contour>
    <component base="En-cy" xOffset="-4"/>
  </outline>
</glyph>
<glyph name="Obarred-cy" format="2">
  <advance width="701"/>
  <unicode hex="04E8"/>
  <anchor x="348" y="735" name="top"/>
  <outline>
    <contour>
      <point x="98" y="291" type="line"/>
      <point x="581" y="291" type="line"/>
      <point x="581" y="407" type="line"/>
      <point x="98" y="407" type="line"/>
    </contour>
    <component base="O-cy" xOffset="-6"/>
  </outline>
</glyph>
<glyph name="hahook-cy" format="2">
  <advance width="595"/>
  <unicode hex="04FD"/>
  <outline>
    <contour>
      <point x="306" y="-164" type="line"/>
      <point x="522" y="-186"/>
      <point x="577" y="-93"/>
      <point x="577" y="19" type="curve" smooth="yes"/>
      <point x="577" y="95"/>
      <point x="538" y="152"/>
      <point x="462" y="260" type="curve"/>
      <point x="587" y="500" type="line"/>
      <point x="389" y="500" type="line"/>
      <point x="266" y="252" type="line"/>
      <point x="331" y="158"/>
      <point x="385" y="79"/>
      <point x="385" y="28" type="curve" smooth="yes"/>
      <point x="385" y="-14"/>
      <point x="372" y="-55"/>
      <point x="306" y="-54" type="curve"/>
    </contour>
    <contour>
      <point x="-3" y="0" type="line"/>
      <point x="195" y="0" type="line"/>
      <point x="324" y="252" type="line"/>
      <point x="206" y="500" type="line"/>
      <point x="9" y="500" type="line"/>
      <point x="140" y="252" type="line"/>
    </contour>
    <contour>
      <point x="195" y="203" type="line"/>
      <point x="385" y="203" type="line"/>
      <point x="385" y="304" type="line"/>
      <point x="195" y="304" type="line"/>
    </contour>
  </outline>
</glyph>
<glyph name="shhadescender-cy" format="2">
  <advance width="661"/>
  <unicode hex="0527"/>
  <outline>
    <contour>
      <point x="661" y="136" type="line"/>
      <point x="429" y="136" type="line"/>
      <point x="429" y="0" type="line"/>
      <point x="661" y="0" type="line"/>
    </contour>
    <contour>
      <point x="661" y="5" type="line"/>
      <point x="507" y="5" type="line"/>
      <point x="522" y="-136" type="line"/>
      <point x="661" y="-136" type="line"/>
    </contour>
    <component base="shha-cy"/>
  </outline>
</glyph>
<glyph name="bullet" format="2">
  <advance width="381"/>
  <unicode hex="2022"/>
  <outline>
    <contour>
      <point x="203" y="402" type="curve" smooth="yes"/>
      <point x="186" y="402" type="line" smooth="yes"/>
      <point x="87" y="402"/>
      <point x="56" y="371"/>
      <point x="56" y="280" type="curve" smooth="yes"/>
      <point x="56" y="263" type="line" smooth="yes"/>
      <point x="56" y="164"/>
      <point x="87" y="133"/>
      <point x="186" y="133" type="curve" smooth="yes"/>
      <point x="203" y="133" type="line" smooth="yes"/>
      <point x="294" y="133"/>
      <point x="325" y="164"/>
      <point x="325" y="263" type="curve" smooth="yes"/>
      <point x="325" y="280" type="line" smooth="yes"/>
      <point x="325" y="371"/>
      <point x="294" y="402"/>
    </contour>
  </outline>
</glyph>
<glyph name="euro" format="2">
  <advance width="644"/>
  <unicode hex="20AC"/>
  <outline>
    <contour>
      <point x="320" y="247" type="curve"/>
      <point x="91" y="247" type="line"/>
      <point x="113" y="70"/>
      <point x="205" y="-12"/>
      <point x="416" y="-12" type="curve" smooth="yes"/>
      <point x="504" y="-12"/>
      <point x="571" y="2"/>
      <point x="620" y="21" type="curve"/>
      <point x="604" y="169" type="line"/>
      <point x="541" y="158"/>
      <point x="442" y="154"/>
      <point x="399" y="161" type="curve" smooth="yes"/>
      <point x="354" y="168"/>
      <point x="330" y="191"/>
    </contour>
    <contour>
      <point x="506" y="331" type="line"/>
      <point x="27" y="331" type="line"/>
      <point x="27" y="221" type="line"/>
      <point x="495" y="221" type="line"/>
    </contour>
    <contour>
      <point x="523" y="471" type="line"/>
      <point x="28" y="471" type="line"/>
      <point x="28" y="361" type="line"/>
      <point x="512" y="361" type="line"/>
    </contour>
    <contour>
      <point x="88" y="422" type="curve"/>
      <point x="317" y="422" type="line"/>
      <point x="326" y="492"/>
      <point x="351" y="518"/>
      <point x="399" y="529" type="curve" smooth="yes"/>
      <point x="450" y="540"/>
      <point x="564" y="529"/>
      <point x="584" y="527" type="curve"/>
      <point x="601" y="675" type="line"/>
      <point x="555" y="690"/>
      <point x="494" y="702"/>
      <point x="416" y="702" type="curve" smooth="yes"/>
      <point x="197" y="702"/>
      <point x="106" y="613"/>
    </contour>
  </outline>
</glyph>
<glyph name="kip" format="2">
  <advance width="694"/>
  <unicode hex="20AD"/>
  <outline>
    <contour>
      <point x="678" y="690" type="line"/>
      <point x="445" y="690" type="line"/>
      <point x="264" y="361" type="line"/>
      <point x="447" y="0" type="line"/>
      <point x="688" y="0" type="line"/>
      <point x="527" y="287" type="line" smooth="yes"/>
      <point x="511" y="317"/>
      <point x="477" y="347"/>
      <point x="458" y="355" type="curve"/>
      <point x="458" y="359" type="line"/>
      <point x="477" y="367"/>
      <point x="502" y="389"/>
      <point x="519" y="420" type="curve" smooth="yes"/>
    </contour>
    <contour>
      <point x="273" y="690" type="line"/>
      <point x="56" y="690" type="line"/>
      <point x="56" y="0" type="line"/>
      <point x="273" y="0" type="line"/>
      <point x="273" y="225" type="line" smooth="yes"/>
      <point x="273" y="265"/>
      <point x="258" y="319"/>
      <point x="242" y="362" type="curve"/>
      <point x="263" y="408"/>
      <point x="273" y="465"/>
      <point x="273" y="516" type="curve" smooth="yes"/>
    </contour>
    <contour>
      <point x="675" y="414" type="line"/>
      <point x="3" y="414" type="line"/>
      <point x="5" y="314" type="line"/>
      <point x="670" y="314" type="line"/>
    </contour>
  </outline>
</glyph>
<glyph name="trademark" format="2">
  <advance width="996"/>
  <unicode hex="2122"/>
  <outline>
    <contour>
      <point x="891" y="696" type="curve" smooth="yes"/>
      <point x="762" y="696" type="line" smooth="yes"/>
      <point x="732" y="696"/>
      <point x="712" y="681"/>
      <point x="708" y="652" type="curve" smooth="yes"/>
      <point x="695" y="529" type="line" smooth="yes"/>
      <point x="693" y="510"/>
      <point x="692" y="490"/>
      <point x="690" y="471" type="curve"/>
      <point x="686" y="471" type="line"/>
      <point x="684" y="490"/>
      <point x="684" y="510"/>
      <point x="681" y="529" type="curve" smooth="yes"/>
      <point x="666" y="652" type="line" smooth="yes"/>
      <point x="662" y="681"/>
      <point x="642" y="696"/>
      <point x="613" y="696" type="curve" smooth="yes"/>
      <point x="486" y="696" type="line" smooth="yes"/>
      <point x="454" y="696"/>
      <point x="439" y="679"/>
      <point x="438" y="647" type="curve" smooth="yes"/>
      <point x="426" y="316" type="line"/>
      <point x="556" y="316" type="line"/>
      <point x="565" y="589" type="line"/>
      <point x="573" y="589" type="line"/>
      <point x="596" y="426" type="line" smooth="yes"/>
      <point x="600" y="397"/>
      <point x="620" y="383"/>
      <point x="650" y="383" type="curve" smooth="yes"/>
      <point x="726" y="383" type="line" smooth="yes"/>
      <point x="756" y="383"/>
      <point x="776" y="397"/>
      <point x="780" y="426" type="curve" smooth="yes"/>
      <point x="802" y="589" type="line"/>
      <point x="810" y="589" type="line"/>
      <point x="822" y="316" type="line"/>
      <point x="951" y="316" type="line"/>
      <point x="940" y="647" type="line" smooth="yes"/>
      <point x="938" y="679"/>
      <point x="923" y="696"/>
    </contour>
    <contour>
      <point x="294" y="696" type="line"/>
      <point x="151" y="696" type="line"/>
      <point x="151" y="316" type="line"/>
      <point x="294" y="316" type="line"/>
    </contour>
    <contour>
      <point x="400" y="696" type="line"/>
      <point x="44" y="696" type="line"/>
      <point x="44" y="589" type="line"/>
      <point x="400" y="589" type="line"/>
    </contour>
  </outline>
</glyph>
<glyph name="integral" format="2">
  <advance width="352"/>
  <unicode hex="222B"/>
  <outline>
    <contour>
      <point x="187" y="714" type="curve" smooth="yes"/>
      <point x="111" y="714"/>
      <point x="52" y="669"/>
      <point x="58" y="581" type="curve" smooth="yes"/>
      <point x="109" y="-39" type="line" smooth="yes"/>
      <point x="111" y="-61"/>
      <point x="106" y="-67"/>
      <point x="89" y="-67" type="curve" smooth="yes"/>
      <point x="34" y="-67" type="line"/>
      <point x="22" y="-218" type="line"/>
      <point x="41" y="-221"/>
      <point x="139" y="-222"/>
      <point x="153" y="-222" type="curve" smooth="yes"/>
      <point x="269" y="-222"/>
      <point x="302" y="-180"/>
      <point x="294" y="-89" type="curve" smooth="yes"/>
      <point x="241" y="538" type="line" smooth="yes"/>
      <point x="240" y="557"/>
      <point x="246" y="559"/>
      <point x="258" y="559" type="curve" smooth="yes"/>
      <point x="318" y="559" type="line"/>
      <point x="330" y="710" type="line"/>
      <point x="270" y="716"/>
      <point x="216" y="714"/>
    </contour>
  </outline>
</glyph>
<glyph name="lessequal" format="2">
  <advance width="554"/>
  <unicode hex="2264"/>
  <outline>
    <contour>
      <point x="492" y="589" type="line"/>
      <point x="50" y="474" type="line"/>
      <point x="50" y="313" type="line"/>
      <point x="492" y="195" type="line"/>
      <point x="492" y="358" type="line"/>
      <point x="227" y="393" type="line"/>
      <point x="492" y="426" type="line"/>
    </contour>
    <contour>
      <point x="489" y="182" type="line"/>
      <point x="38" y="182" type="line"/>
      <point x="38" y="24" type="line"/>
      <point x="489" y="24" type="line"/>
    </contour>
  </outline>
</glyph>
<glyph name="fl" format="2">
  <advance width="773"/>
  <unicode hex="FB02"/>
  <outline>
    <contour>
      <point x="271" y="724" type="curve" smooth="yes"/>
      <point x="136" y="724"/>
      <point x="90" y="655"/>
      <point x="90" y="561" type="curve" smooth="yes"/>
      <point x="90" y="0" type="line"/>
      <point x="300" y="0" type="line"/>
      <point x="300" y="532" type="line" smooth="yes"/>
      <point x="300" y="574"/>
      <point x="311" y="587"/>
      <point x="346" y="587" type="curve" smooth="yes"/>
      <point x="472" y="587" type="line"/>
      <point x="472" y="126" type="line" smooth="yes"/>
      <point x="472" y="38"/>
      <point x="532" y="-14"/>
      <point x="631" y="-14" type="curve" smooth="yes"/>
      <point x="669" y="-14"/>
      <point x="744" y="-6"/>
      <point x="773" y="12" type="curve"/>
      <point x="750" y="146" type="line"/>
      <point x="723" y="146" type="line" smooth="yes"/>
      <point x="695" y="146"/>
      <point x="682" y="156"/>
      <point x="682" y="182" type="curve" smooth="yes"/>
      <point x="682" y="700" type="line"/>
      <point x="546" y="726"/>
      <point x="314" y="724"/>
    </contour>
    <contour>
      <point x="405" y="500" type="line"/>
      <point x="90" y="500" type="line"/>
      <point x="8" y="495" type="line"/>
      <point x="8" y="374" type="line"/>
      <point x="405" y="374" type="line"/>
    </contour>
  </outline>
</glyph>
<glyph name="brevegrave" format="2">
  <advance width="411"/>
  <anchor x="205" y="532" name="_top"/>
  <outline>
    <contour>
      <point x="124" y="719" type="curve"/>
      <point x="27" y="706" type="line"/>
      <point x="11" y="617"/>
      <point x="82" y="534"/>
      <point x="205" y="534" type="curve" smooth="yes"/>
      <point x="328" y="534"/>
      <point x="400" y="617"/>
      <point x="384" y="706" type="curve"/>
      <point x="287" y="719" type="line"/>
      <point x="287" y="677"/>
      <point x="265" y="660"/>
      <point x="205" y="660" type="curve" smooth="yes"/>
      <point x="146" y="660"/>
      <point x="124" y="677"/>
    </contour>
    <contour>
      <point x="98" y="924" type="line"/>
      <point x="25" y="804" type="line"/>
      <point x="228" y="720" type="line"/>
      <point x="281" y="798" type="line"/>
    </contour>
  </outline>
</glyph>
<glyph name="brevetilde" format="2">
  <advance width="411"/>
  <anchor x="206" y="532" name="_top"/>
  <outline>
    <contour>
      <point x="287" y="719" type="line"/>
      <point x="287" y="677"/>
      <point x="265" y="660"/>
      <point x="206" y="660" type="curve" smooth="yes"/>
      <point x="146" y="660"/>
      <point x="124" y="677"/>
      <point x="124" y="719" type="curve"/>
      <point x="27" y="706" type="line"/>
      <point x="11" y="617"/>
      <point x="83" y="534"/>
      <point x="206" y="534" type="curve" smooth="yes"/>
      <point x="329" y="534"/>
      <point x="400" y="617"/>
      <point x="384" y="706" type="curve"/>
    </contour>
    <contour>
      <point x="115" y="906" type="curve" smooth="yes"/>
      <point x="67" y="910"/>
      <point x="18" y="861"/>
      <point x="38" y="753" type="curve"/>
      <point x="117" y="753" type="line"/>
      <point x="117" y="782"/>
      <point x="115" y="792"/>
      <point x="143" y="787" type="curve" smooth="yes"/>
      <point x="183" y="780"/>
      <point x="235" y="754"/>
      <point x="297" y="748" type="curve" smooth="yes"/>
      <point x="353" y="743"/>
      <point x="393" y="800"/>
      <point x="374" y="901" type="curve"/>
      <point x="295" y="901" type="line"/>
      <point x="295" y="872"/>
      <point x="296" y="861"/>
      <point x="269" y="867" type="curve" smooth="yes"/>
      <point x="221" y="878"/>
      <point x="177" y="901"/>
    </contour>
  </outline>
</glyph>
<glyph name="c_t" format="2">
  <advance width="882"/>
  <outline>
    <contour>
      <point x="870" y="500" type="line"/>
      <point x="294" y="500" type="line" smooth="yes"/>
      <point x="97" y="500"/>
      <point x="26" y="433"/>
      <point x="26" y="251" type="curve" smooth="yes"/>
      <point x="26" y="58"/>
      <point x="96" y="-12"/>
      <point x="292" y="-12" type="curve" smooth="yes"/>
      <point x="358" y="-12"/>
      <point x="430" y="-1"/>
      <point x="480" y="30" type="curve"/>
      <point x="461" y="161" type="line"/>
      <point x="410" y="154"/>
      <point x="358" y="154"/>
      <point x="330" y="154" type="curve" smooth="yes"/>
      <point x="266" y="154"/>
      <point x="246" y="173"/>
      <point x="246" y="251" type="curve" smooth="yes"/>
      <point x="246" y="349"/>
      <point x="266" y="374"/>
      <point x="330" y="374" type="curve" smooth="yes"/>
      <point x="870" y="374" type="line"/>
    </contour>
    <contour>
      <point x="749" y="631" type="line"/>
      <point x="538" y="631" type="line"/>
      <point x="539" y="126" type="line" smooth="yes"/>
      <point x="539" y="38"/>
      <point x="601" y="-14"/>
      <point x="698" y="-14" type="curve" smooth="yes"/>
      <point x="745" y="-14"/>
      <point x="825" y="-6"/>
      <point x="868" y="12" type="curve"/>
      <point x="845" y="146" type="line"/>
      <point x="792" y="146" type="line"/>
      <point x="761" y="146"/>
      <point x="749" y="156"/>
      <point x="749" y="182" type="curve" smooth="yes"/>
    </contour>
  </outline>
</glyph>
<glyph name="circumflexhook" format="2">
  <advance width="479"/>
  <anchor x="238" y="550" name="_top"/>
  <outline>
    <contour>
      <point x="161" y="735" type="line"/>
      <point x="31" y="604" type="line"/>
      <point x="79" y="535" type="line"/>
      <point x="233" y="620" type="line"/>
      <point x="241" y="620" type="line"/>
      <point x="398" y="535" type="line"/>
      <point x="448" y="612" type="line"/>
      <point x="313" y="735" type="line"/>
    </contour>
    <contour>
      <point x="379" y="769" type="curve"/>
      <point x="397" y="693" type="line"/>
      <point x="460" y="702"/>
      <point x="517" y="736"/>
      <point x="517" y="804" type="curve" smooth="yes"/>
      <point x="517" y="890"/>
      <point x="445" y="929"/>
      <point x="347" y="892" type="curve"/>
      <point x="366" y="811" type="line"/>
      <point x="390" y="824"/>
      <point x="419" y="826"/>
      <point x="418" y="804" type="curve" smooth="yes"/>
      <point x="417" y="783"/>
      <point x="401" y="775"/>
    </contour>
  </outline>
</glyph>
<glyph name="dblgrave" format="2">
  <advance width="547"/>
  <anchor x="304" y="523" name="_top"/>
  <outline>
    <contour>
      <point x="374" y="776" type="line"/>
      <point x="245" y="692" type="line"/>
      <point x="414" y="516" type="line"/>
      <point x="497" y="583" type="line"/>
    </contour>
    <contour>
      <point x="159" y="776" type="line"/>
      <point x="30" y="692" type="line"/>
      <point x="200" y="516" type="line"/>
      <point x="282" y="582" type="line"/>
    </contour>
  </outline>
</glyph>
<glyph name="dotbelow" format="2">
  <advance width="231"/>
  <anchor x="114" y="0" name="_bottom"/>
  <outline>
    <contour>
      <point x="147" y="-27" type="curve" smooth="yes"/>
      <point x="84" y="-27" type="line" smooth="yes"/>
      <point x="44" y="-27"/>
      <point x="25" y="-45"/>
      <point x="25" y="-84" type="curve" smooth="yes"/>
      <point x="25" y="-131" type="line" smooth="yes"/>
      <point x="25" y="-169"/>
      <point x="44" y="-188"/>
      <point x="84" y="-188" type="curve" smooth="yes"/>
      <point x="147" y="-188" type="line" smooth="yes"/>
      <point x="187" y="-188"/>
      <point x="206" y="-169"/>
      <point x="206" y="-131" type="curve" smooth="yes"/>
      <point x="206" y="-84" type="line" smooth="yes"/>
      <point x="206" y="-45"/>
      <point x="187" y="-27"/>
    </contour>
  </outline>
</glyph>
<glyph name="f_f_i" format="2">
  <advance width="1100"/>
  <outline>
    <contour>
      <point x="273" y="714" type="curve" smooth="yes"/>
      <point x="139" y="714"/>
      <point x="95" y="645"/>
      <point x="92" y="551" type="curve" smooth="yes"/>
      <point x="92" y="0" type="line"/>
      <point x="295" y="0" type="line"/>
      <point x="295" y="522" type="line" smooth="yes"/>
      <point x="295" y="561"/>
      <point x="306" y="574"/>
      <point x="343" y="574" type="curve" smooth="yes"/>
      <point x="416" y="574" type="line"/>
      <point x="436" y="700" type="line"/>
      <point x="392" y="710"/>
      <point x="309" y="714"/>
    </contour>
    <contour>
      <point x="843" y="500" type="line"/>
      <point x="93" y="500" type="line"/>
      <point x="8" y="495" type="line"/>
      <point x="8" y="374" type="line"/>
      <point x="843" y="374" type="line"/>
    </contour>
    <contour>
      <point x="654" y="724" type="curve" smooth="yes"/>
      <point x="518" y="724"/>
      <point x="471" y="655"/>
      <point x="471" y="561" type="curve" smooth="yes"/>
      <point x="471" y="0" type="line"/>
      <point x="673" y="0" type="line"/>
      <point x="673" y="532" type="line" smooth="yes"/>
      <point x="673" y="571"/>
      <point x="684" y="584"/>
      <point x="729" y="584" type="curve" smooth="yes"/>
      <point x="798" y="584" type="line"/>
      <point x="798" y="710" type="line"/>
      <point x="752" y="720"/>
      <point x="692" y="724"/>
    </contour>
    <contour>
      <point x="1053" y="500" type="line"/>
      <point x="842" y="500" type="line"/>
      <point x="842" y="0" type="line"/>
      <point x="1053" y="0" type="line"/>
    </contour>
    <contour>
      <point x="992" y="739" type="curve" smooth="yes"/>
      <point x="905" y="739" type="line" smooth="yes"/>
      <point x="863" y="739"/>
      <point x="843" y="719"/>
      <point x="843" y="677" type="curve" smooth="yes"/>
      <point x="843" y="626" type="line" smooth="yes"/>
      <point x="843" y="584"/>
      <point x="863" y="564"/>
      <point x="905" y="564" type="curve" smooth="yes"/>
      <point x="992" y="564" type="line" smooth="yes"/>
      <point x="1034" y="564"/>
      <point x="1054" y="584"/>
      <point x="1054" y="626" type="curve" smooth="yes"/>
      <point x="1054" y="677" type="line" smooth="yes"/>
      <point x="1054" y="719"/>
      <point x="1034" y="739"/>
    </contour>
  </outline>
</glyph>
<glyph name="f_t" format="2">
  <advance width="810"/>
  <outline>
    <contour>
      <point x="276" y="724" type="curve" smooth="yes"/>
      <point x="139" y="724"/>
      <point x="92" y="655"/>
      <point x="92" y="561" type="curve" smooth="yes"/>
      <point x="92" y="0" type="line"/>
      <point x="303" y="0" type="line"/>
      <point x="303" y="532" type="line" smooth="yes"/>
      <point x="303" y="571"/>
      <point x="314" y="584"/>
      <point x="351" y="584" type="curve" smooth="yes"/>
      <point x="409" y="584" type="line"/>
      <point x="429" y="710" type="line"/>
      <point x="388" y="720"/>
      <point x="310" y="724"/>
    </contour>
    <contour>
      <point x="677" y="631" type="line"/>
      <point x="466" y="631" type="line"/>
      <point x="467" y="126" type="line" smooth="yes"/>
      <point x="467" y="38"/>
      <point x="529" y="-14"/>
      <point x="626" y="-14" type="curve" smooth="yes"/>
      <point x="673" y="-14"/>
      <point x="753" y="-6"/>
      <point x="796" y="12" type="curve"/>
      <point x="773" y="146" type="line"/>
      <point x="720" y="146" type="line"/>
      <point x="689" y="146"/>
      <point x="677" y="156"/>
      <point x="677" y="182" type="curve" smooth="yes"/>
    </contour>
    <contour>
      <point x="798" y="500" type="line"/>
      <point x="93" y="500" type="line"/>
      <point x="8" y="495" type="line"/>
      <point x="8" y="374" type="line"/>
      <point x="798" y="374" type="line"/>
    </contour>
  </outline>
</glyph>
<glyph name="naira.rvrn" format="2">
  <advance width="775"/>
  <outline>
    <contour>
      <point x="705" y="690" type="line"/>
      <point x="506" y="690" type="line"/>
      <point x="507" y="408" type="line" smooth="yes"/>
      <point x="507" y="366"/>
      <point x="511" y="325"/>
      <point x="516" y="283" type="curve"/>
      <point x="509" y="283" type="line"/>
      <point x="493" y="327"/>
      <point x="475" y="368"/>
      <point x="456" y="401" type="curve" smooth="yes"/>
      <point x="312" y="627" type="line" smooth="yes"/>
      <point x="288" y="668"/>
      <point x="273" y="690"/>
      <point x="228" y="690" type="curve" smooth="yes"/>
      <point x="145" y="690" type="line" smooth="yes"/>
      <point x="96" y="690"/>
      <point x="70" y="664"/>
      <point x="70" y="615" type="curve" smooth="yes"/>
      <point x="70" y="0" type="line"/>
      <point x="270" y="0" type="line"/>
      <point x="270" y="292" type="line" smooth="yes"/>
      <point x="270" y="332"/>
      <point x="266" y="376"/>
      <point x="260" y="418" type="curve"/>
      <point x="267" y="418" type="line"/>
      <point x="279" y="376"/>
      <point x="294" y="334"/>
      <point x="313" y="300" type="curve" smooth="yes"/>
      <point x="463" y="63" type="line" smooth="yes"/>
      <point x="486" y="22"/>
      <point x="502" y="0"/>
      <point x="547" y="0" type="curve" smooth="yes"/>
      <point x="630" y="0" type="line" smooth="yes"/>
      <point x="679" y="0"/>
      <point x="705" y="26"/>
      <point x="705" y="75" type="curve" smooth="yes"/>
    </contour>
    <contour>
      <point x="767" y="496" type="line"/>
      <point x="8" y="496" type="line"/>
      <point x="10" y="406" type="line"/>
      <point x="762" y="406" type="line"/>
    </contour>
    <contour>
      <point x="767" y="296" type="line"/>
      <point x="8" y="296" type="line"/>
      <point x="10" y="206" type="line"/>
      <point x="762" y="206" type="line"/>
    </contour>
  </outline>
</glyph>
<glyph name="notequal.rvrn" format="2">
  <advance width="613"/>
  <outline>
    <contour>
      <point x="447" y="590" type="line"/>
      <point x="102" y="19" type="line"/>
      <point x="144" y="-3" type="line"/>
      <point x="489" y="568" type="line"/>
    </contour>
    <component base="equal" xOffset="21"/>
  </outline>
</glyph>
<glyph name="oslash.rvrn" format="2">
  <advance width="611"/>
  <outline>
    <contour>
      <point x="437" y="597" type="line"/>
      <point x="127" y="-71" type="line"/>
      <point x="173" y="-93" type="line"/>
      <point x="483" y="575" type="line"/>
    </contour>
    <component base="o"/>
  </outline>
</glyph>
<glyph name="peso.rvrn" format="2">
  <advance width="726"/>
  <outline>
    <contour>
      <point x="365" y="700" type="curve" smooth="yes"/>
      <point x="227" y="700"/>
      <point x="165" y="699"/>
      <point x="73" y="690" type="curve"/>
      <point x="88" y="521" type="line"/>
      <point x="363" y="521" type="line" smooth="yes"/>
      <point x="417" y="521"/>
      <point x="434" y="511"/>
      <point x="434" y="470" type="curve" smooth="yes"/>
      <point x="434" y="421"/>
      <point x="417" y="410"/>
      <point x="363" y="410" type="curve" smooth="yes"/>
      <point x="87" y="410" type="line"/>
      <point x="84" y="287" type="line"/>
      <point x="116" y="265"/>
      <point x="261" y="232"/>
      <point x="395" y="232" type="curve" smooth="yes"/>
      <point x="584" y="232"/>
      <point x="651" y="283"/>
      <point x="651" y="465" type="curve" smooth="yes"/>
      <point x="651" y="649"/>
      <point x="584" y="700"/>
    </contour>
    <contour>
      <point x="290" y="690" type="line"/>
      <point x="73" y="690" type="line"/>
      <point x="73" y="0" type="line"/>
      <point x="290" y="0" type="line"/>
    </contour>
    <contour>
      <point x="715" y="594" type="line"/>
      <point x="10" y="594" type="line"/>
      <point x="11" y="521" type="line"/>
      <point x="712" y="521" type="line"/>
    </contour>
    <contour>
      <point x="715" y="410" type="line"/>
      <point x="10" y="410" type="line"/>
      <point x="11" y="337" type="line"/>
      <point x="712" y="337" type="line"/>
    </contour>
  </outline>
</glyph>
<glyph name="s_t" format="2">
  <advance width="925"/>
  <outline>
    <contour>
      <point x="913" y="500" type="line"/>
      <point x="256" y="500" type="line" smooth="yes"/>
      <point x="80" y="500"/>
      <point x="24" y="449"/>
      <point x="24" y="368" type="curve" smooth="yes"/>
      <point x="24" y="290"/>
      <point x="45" y="236"/>
      <point x="155" y="204" type="curve" smooth="yes"/>
      <point x="265" y="174" type="line" smooth="yes"/>
      <point x="303" y="164"/>
      <point x="320" y="160"/>
      <point x="320" y="147" type="curve" smooth="yes"/>
      <point x="320" y="132"/>
      <point x="298" y="132"/>
      <point x="222" y="132" type="curve" smooth="yes"/>
      <point x="159" y="132"/>
      <point x="70" y="132"/>
      <point x="44" y="132" type="curve"/>
      <point x="31" y="10" type="line"/>
      <point x="141" y="-9"/>
      <point x="243" y="-11"/>
      <point x="291" y="-11" type="curve" smooth="yes"/>
      <point x="458" y="-11"/>
      <point x="523" y="27"/>
      <point x="523" y="154" type="curve" smooth="yes"/>
      <point x="523" y="241"/>
      <point x="483" y="280"/>
      <point x="401" y="305" type="curve" smooth="yes"/>
      <point x="286" y="337" type="line" smooth="yes"/>
      <point x="238" y="350"/>
      <point x="227" y="350"/>
      <point x="227" y="361" type="curve" smooth="yes"/>
      <point x="227" y="374"/>
      <point x="235" y="373"/>
      <point x="302" y="373" type="curve" smooth="yes"/>
      <point x="913" y="374" type="line"/>
    </contour>
    <contour>
      <point x="792" y="631" type="line"/>
      <point x="581" y="631" type="line"/>
      <point x="582" y="126" type="line" smooth="yes"/>
      <point x="582" y="38"/>
      <point x="644" y="-14"/>
      <point x="741" y="-14" type="curve" smooth="yes"/>
      <point x="788" y="-14"/>
      <point x="868" y="-6"/>
      <point x="911" y="12" type="curve"/>
      <point x="888" y="146" type="line"/>
      <point x="835" y="146" type="line"/>
      <point x="804" y="146"/>
      <point x="792" y="156"/>
      <point x="792" y="182" type="curve" smooth="yes"/>
    </contour>
  </outline>
</glyph>
<glyph name="two.osf" format="2">
  <advance width="573"/>
  <outline>
    <contour>
      <point x="282" y="544" type="curve" smooth="yes"/>
      <point x="206" y="544"/>
      <point x="148" y="541"/>
      <point x="44" y="522" type="curve"/>
      <point x="51" y="370" type="line"/>
      <point x="149" y="372"/>
      <point x="178" y="372"/>
      <point x="249" y="372" type="curve" smooth="yes"/>
      <point x="297" y="372"/>
      <point x="310" y="365"/>
      <point x="310" y="343" type="curve" smooth="yes"/>
      <point x="310" y="316"/>
      <point x="264" y="292"/>
      <point x="198" y="254" type="curve"/>
      <point x="68" y="185" type="line"/>
      <point x="35" y="168"/>
      <point x="38" y="133"/>
      <point x="38" y="98" type="curve" smooth="yes"/>
      <point x="38" y="0" type="line"/>
      <point x="533" y="0" type="line"/>
      <point x="533" y="172" type="line"/>
      <point x="427" y="172" type="line" smooth="yes"/>
      <point x="394" y="172"/>
      <point x="366" y="171"/>
      <point x="335" y="162" type="curve"/>
      <point x="438" y="231" type="line"/>
      <point x="495" y="276"/>
      <point x="520" y="319"/>
      <point x="520" y="396" type="curve" smooth="yes"/>
      <point x="520" y="523"/>
      <point x="434" y="544"/>
    </contour>
  </outline>
</glyph>
<glyph name="yen.rvrn" format="2">
  <advance width="710"/>
  <outline>
    <contour>
      <point x="692" y="690" type="line"/>
      <point x="469" y="690" type="line"/>
      <point x="383" y="474" type="line" smooth="yes"/>
      <point x="372" y="444"/>
      <point x="367" y="407"/>
      <point x="362" y="376" type="curve"/>
      <point x="349" y="376" type="line"/>
      <point x="344" y="407"/>
      <point x="340" y="443"/>
      <point x="328" y="473" type="curve" smooth="yes"/>
      <point x="241" y="690" type="line"/>
      <point x="18" y="690" type="line"/>
      <point x="251" y="205" type="line"/>
      <point x="459" y="205" type="line"/>
    </contour>
    <contour>
      <point x="464" y="328" type="line"/>
      <point x="247" y="328" type="line"/>
      <point x="247" y="0" type="line"/>
      <point x="464" y="0" type="line"/>
    </contour>
    <contour>
      <point x="611" y="228" type="line"/>
      <point x="99" y="228" type="line"/>
      <point x="101" y="128" type="line"/>
      <point x="611" y="128" type="line"/>
    </contour>
    <contour>
      <point x="611" y="358" type="line"/>
      <point x="99" y="358" type="line"/>
      <point x="101" y="258" type="line"/>
      <point x="611" y="258" type="line"/>
    </contour>
  </outline>
</glyph>
<glyph name="zero.osf" format="2">
  <advance width="647"/>
  <outline>
    <contour>
      <point x="323" y="547" type="curve" smooth="yes"/>
      <point x="149" y="547"/>
      <point x="28" y="474"/>
      <point x="28" y="265" type="curve" smooth="yes"/>
      <point x="28" y="56"/>
      <point x="149" y="-14"/>
      <point x="323" y="-14" type="curve" smooth="yes"/>
      <point x="498" y="-14"/>
      <point x="619" y="56"/>
      <point x="619" y="265" type="curve" smooth="yes"/>
      <point x="619" y="474"/>
      <point x="498" y="547"/>
    </contour>
    <contour>
      <point x="322" y="386" type="curve" smooth="yes"/>
      <point x="378" y="386"/>
      <point x="404" y="363"/>
      <point x="404" y="265" type="curve" smooth="yes"/>
      <point x="404" y="167"/>
      <point x="378" y="147"/>
      <point x="322" y="147" type="curve" smooth="yes"/>
      <point x="269" y="147"/>
      <point x="243" y="167"/>
      <point x="243" y="265" type="curve" smooth="yes"/>
      <point x="243" y="363"/>
      <point x="269" y="386"/>
    </contour>
  </outline>
</glyph>
